<?xml version="1.0" encoding="utf-8"?>
<!-- Generator: Adobe Illustrator 27.0.0, SVG Export Plug-In . SVG Version: 6.00 Build 0)  -->
<svg version="1.1" id="Layer_1" xmlns="http://www.w3.org/2000/svg" xmlns:xlink="http://www.w3.org/1999/xlink" x="0px" y="0px"
	 viewBox="0 0 150 77.8" style="enable-background:new 0 0 150 77.8;" xml:space="preserve">
<style type="text/css">
	.st0{fill-rule:evenodd;clip-rule:evenodd;fill:#ACDCEC;stroke:#000000;stroke-width:1.6;stroke-miterlimit:8;}
	.st1{enable-background:new    ;}
	.st2{fill:#FFFFFF;}
	.st3{fill:none;stroke:#000000;stroke-width:3.2;}
	.st4{fill-rule:evenodd;clip-rule:evenodd;fill:#FFFFFF;}
	.st5{fill:none;stroke:#000000;stroke-width:1.6;stroke-linecap:round;stroke-linejoin:round;}
	.st6{fill-rule:evenodd;clip-rule:evenodd;}
	.st7{fill:none;stroke:#FFFFFF;stroke-width:0.68;stroke-miterlimit:8;}
	.st8{fill:none;stroke:#FFFFFF;stroke-width:0.67;stroke-miterlimit:8;}
	.st9{fill:none;stroke:#FFFFFF;stroke-width:0.66;stroke-miterlimit:8;}
</style>
<path id="Arrow-A" class="st0" d="M148,73.1h-31.2L98.7,54.8l18.1-18.1H148C148,36.8,148,73.1,148,73.1z"/>
<g>
	<g class="st1">
		<path class="st2" d="M122.1,64.8V43.4H138V47h-11.6v4.8h10.8v3.6h-10.8v5.8h12v3.6H122.1z"/>
	</g>
	<g class="st1">
		<path class="st3" d="M122.1,64.8V43.4H138V47h-11.6v4.8h10.8v3.6h-10.8v5.8h12v3.6H122.1z"/>
	</g>
	<g class="st1">
		<path class="st2" d="M122.1,64.8V43.4H138V47h-11.6v4.8h10.8v3.6h-10.8v5.8h12v3.6H122.1z"/>
	</g>
</g>
<g id="Icon">
	<g id="Group-43">
		<path id="Fill-39" class="st4" d="M113.8,16.7c0-4.3-3.6-7.9-8.1-7.9c-0.4,0-0.8,0.1-1.2,0.1c-0.3-4-3.8-7.2-8-7.2
			c-3.2,0-5.9,1.8-7.2,4.3c-0.9-0.8-2-1.3-3.3-1.3c-2.6,0-4.6,1.9-4.9,4.3c-0.7-0.2-1.3-0.3-2.1-0.3c-4.5,0-8.1,3.5-8.1,7.9
			s3.6,7.9,8.1,7.9h26.7C110.2,24.5,113.8,21,113.8,16.7"/>
		<path id="Stroke-41" class="st5" d="M113.8,16.7c0-4.3-3.6-7.9-8.1-7.9c-0.4,0-0.8,0.1-1.2,0.1c-0.3-4-3.8-7.2-8-7.2
			c-3.2,0-5.9,1.8-7.2,4.3c-0.9-0.8-2-1.3-3.3-1.3c-2.6,0-4.6,1.9-4.9,4.3c-0.7-0.2-1.3-0.3-2.1-0.3c-4.5,0-8.1,3.5-8.1,7.9
			s3.6,7.9,8.1,7.9h26.7C110.2,24.5,113.8,21,113.8,16.7z"/>
	</g>
	<line id="Stroke-44" class="st5" x1="85.7" y1="25" x2="83.3" y2="28.4"/>
	<line id="Stroke-45" class="st5" x1="93.3" y1="25" x2="90.9" y2="28.4"/>
	<line id="Stroke-46" class="st5" x1="101.2" y1="25" x2="98.8" y2="28.4"/>
	<line id="Stroke-47" class="st5" x1="81.4" y1="30.7" x2="79" y2="34.1"/>
	<line id="Stroke-48" class="st5" x1="89" y1="30.7" x2="86.6" y2="34.1"/>
	<line id="Stroke-49" class="st5" x1="96.9" y1="30.7" x2="94.5" y2="34.1"/>
	<line id="Stroke-50" class="st5" x1="92.6" y1="36.4" x2="90.2" y2="39.8"/>
	<g id="Group-77">
		<path id="Fill-51" class="st4" d="M21.8,75.6c-6.8,0.3-10.7,0.3-13.6-1.2c-2.2-1.1-3.5-3.1-2.7-5c0.8-1.8,3.4-2.6,5.7-1.6
			C14.8,69.2,15.1,71.5,21.8,75.6"/>
		<path id="Stroke-53" class="st5" d="M21.8,75.6c-6.8,0.3-10.7,0.3-13.6-1.2c-2.2-1.1-3.5-3.1-2.7-5c0.8-1.8,3.4-2.6,5.7-1.6
			C14.8,69.2,15.1,71.5,21.8,75.6z"/>
		<path id="Fill-55" class="st4" d="M61.1,75.6c6.8,0.3,10.7,0.3,13.6-1.2c2.2-1.1,3.5-3.1,2.7-5c-0.8-1.8-3.4-2.6-5.7-1.6
			C68.1,69.2,67.8,71.5,61.1,75.6"/>
		<path id="Stroke-57" class="st5" d="M61.1,75.6c6.8,0.3,10.7,0.3,13.6-1.2c2.2-1.1,3.5-3.1,2.7-5c-0.8-1.8-3.4-2.6-5.7-1.6
			C68.1,69.2,67.8,71.5,61.1,75.6z"/>
		<path id="Fill-59" class="st4" d="M71.4,62.6c2-0.7,6.4-1.3,8.2-2.5c1.3-0.9,1.7-2.6,0.8-3.8c-0.9-1.2-2.7-1.5-4.1-0.6
			C74.2,57.1,73.1,60.6,71.4,62.6"/>
		<path id="Stroke-61" class="st5" d="M71.4,62.6c2-0.7,6.4-1.3,8.2-2.5c1.3-0.9,1.7-2.6,0.8-3.8c-0.9-1.2-2.7-1.5-4.1-0.6
			C74.2,57.1,73.1,60.6,71.4,62.6z"/>
		<path id="Fill-63" class="st4" d="M11.5,62.6c-2-0.7-6.4-1.3-8.2-2.5c-1.3-0.9-1.7-2.6-0.8-3.8s2.7-1.5,4.1-0.6
			C8.7,57.1,9.7,60.6,11.5,62.6"/>
		<path id="Stroke-65" class="st5" d="M11.5,62.6c-2-0.7-6.4-1.3-8.2-2.5c-1.3-0.9-1.7-2.6-0.8-3.8s2.7-1.5,4.1-0.6
			C8.7,57.1,9.7,60.6,11.5,62.6z"/>
		<path id="Fill-67" class="st6" d="M33.4,74.8c-9,0-16.2-13.9-16.2-31s7.3-31,16.2-31h19.1c9,0,16.2,13.9,16.2,31s-7.3,31-16.2,31
			C52.5,74.8,33.4,74.8,33.4,74.8z"/>
		<path id="Stroke-69" class="st7" d="M54.3,75.2c-9.1,0-16.1-14-16.1-31.3S44.9,12.6,54,12.6"/>
		<path id="Fill-71" class="st4" d="M54.8,21.6c-5,0-9,9.6-9,21.5s4,21.5,9,21.5s9-9.6,9-21.5C63.9,31.3,59.8,21.6,54.8,21.6
			 M54,63.5c-4.2,0-7.7-9.1-7.7-20.2s3.4-20.2,7.7-20.2s7.7,9.1,7.7,20.2S58.3,63.5,54,63.5"/>
		<path id="Fill-73" class="st4" d="M48.4,29.9l-0.8,1.4l-0.9,4.4l-0.4,4.8l-0.2,6.4l1.2,7l1.2,3.5c2.8,0,5-5.9,5-13.1
			C53.4,37,51.1,29.9,48.4,29.9"/>
		<path id="Stroke-75" class="st7" d="M42.5,75.5C33.3,75.5,26,61.2,26,43.9s7.5-31.8,16.7-31.8 M37.6,75.4
			c-9.2,0-16.5-14.3-16.5-31.6S28.6,12,37.8,12"/>
	</g>
	<path id="Stroke-78" class="st8" d="M26.1,40.4l-4.8-0.3 M26,45.9l-5-0.2 M26.4,51l-4.9-0.3 M26.9,55.1l-4.7-0.2 M28,59.8l-4.8-0.3
		 M29.4,63l-4.8-0.2 M30.6,66l-4.9-0.1 M32.2,68.6h-4.9 M33.7,70.7l-4.8,0.1 M35.6,72.5l-4.8,0.1 M26.8,34.3l-4.9-0.1 M27.7,29.8
		h-4.6 M29,25.8l-5,0.1 M30,22.9h-4.6 M31.5,20.5h-5 M37.6,74.1H33 M32.8,18.4h-4.9 M34.3,16.5h-4.9 M35.7,15l-4.8-0.1 M37.7,13.5
		h-5"/>
	<path id="Stroke-79" class="st8" d="M50.3,75.7c-8.9,0-15.9-14.3-15.9-31.6s7.2-31.8,16-31.8 M45.5,75.5
		c-8.9,0-15.9-14.3-15.9-31.6s7.2-31.8,16-31.8"/>
	<path id="Stroke-81" class="st9" d="M34.5,40.6l-4.6-0.3 M34.4,46.1l-4.8-0.2 M34.7,51.2L30,50.9 M35.3,55.3l-4.5-0.2 M36.3,60
		l-4.6-0.3 M37.6,63.1L33,62.9 M38.9,66.2L34.2,66 M40.3,68.7h-4.7 M41.8,70.9L37.2,71 M43.6,72.7L39,72.8 M35.2,34.4l-4.7-0.1
		 M36,30h-4.5 M37.3,26l-4.8,0.1 M38.2,23.1h-4.4 M39.7,20.6h-4.8 M45.4,74.2l-4.3,0.2 M40.9,18.6h-4.7 M42.3,16.7h-4.7 M43.7,15.2
		l-4.6-0.1 M45.6,13.7h-4.8"/>
</g>
</svg>
