<?xml version="1.0" encoding="utf-8"?>
<!-- Generator: Adobe Illustrator 27.0.0, SVG Export Plug-In . SVG Version: 6.00 Build 0)  -->
<svg version="1.1" id="Layer_1" xmlns="http://www.w3.org/2000/svg" xmlns:xlink="http://www.w3.org/1999/xlink" x="0px" y="0px"
	 viewBox="0 0 150 77.8" style="enable-background:new 0 0 150 77.8;" xml:space="preserve">
<style type="text/css">
	.st0{fill-rule:evenodd;clip-rule:evenodd;}
	.st1{fill:none;stroke:#FFFFFF;stroke-width:0.68;stroke-miterlimit:8;}
	.st2{fill-rule:evenodd;clip-rule:evenodd;fill:#FFFFFF;}
	.st3{fill:none;stroke:#FFFFFF;stroke-width:0.67;stroke-miterlimit:8;}
	.st4{fill:none;stroke:#FFFFFF;stroke-width:0.66;stroke-miterlimit:8;}
	.st5{fill:none;stroke:#000000;stroke-width:1.6;stroke-linecap:round;stroke-linejoin:round;}
	.st6{fill:none;stroke:#FFFFFF;stroke-linecap:round;stroke-linejoin:round;}
	.st7{fill-rule:evenodd;clip-rule:evenodd;fill:#FFF101;stroke:#000000;stroke-width:1.6;stroke-miterlimit:8;}
	.st8{enable-background:new    ;}
	.st9{fill:#FFFFFF;}
	.st10{fill:none;stroke:#000000;stroke-width:3.2;}
</style>
<g id="Icon">
	<g id="Group-11">
		<path id="Fill-1" class="st0" d="M18.6,75C9.8,75,2.5,61,2.5,43.7s7.2-31.3,16.1-31.3h18.9c8.9,0,16.1,14,16.1,31.3
			S46.5,75,37.6,75C37.6,75,18.7,75,18.6,75z"/>
		<path id="Stroke-3" class="st1" d="M39.3,75.4c-9,0-16-14.1-16-31.5S30,12.3,38.9,12.3"/>
		<path id="Fill-5" class="st2" d="M40,21.5c-4.9,0-9,9.7-9,21.6s4,21.6,9,21.6s9-9.7,9-21.6S44.9,21.5,40,21.5 M39.2,63.6
			c-4.2,0-7.6-9.1-7.6-20.4s3.4-20.4,7.6-20.4s7.6,9.1,7.6,20.4S43.3,63.6,39.2,63.6"/>
		<path id="Fill-7" class="st2" d="M33.5,29.8l-0.8,1.4l-0.9,4.4l-0.4,4.9l-0.2,6.4l1.2,7l1.2,3.6c2.7,0,4.9-5.9,4.9-13.2
			C38.5,36.9,36.3,29.8,33.5,29.8"/>
		<path id="Stroke-9" class="st1" d="M27.8,75.7c-9.1,0-16.4-14.4-16.4-31.8S18.8,11.8,28,11.8 M22.9,75.6
			c-9.1,0-16.4-14.4-16.4-31.8S13.9,11.7,23,11.7"/>
	</g>
	<path id="Stroke-12" class="st3" d="M11.4,40.4l-4.8-0.3 M11.3,45.9l-4.9-0.2 M11.6,51l-4.9-0.3 M12.2,55.2L7.6,55 M13.4,59.9
		l-4.8-0.3 M14.6,63.1l-4.7-0.2 M15.9,66.1l-5-0.4 M17.5,68.7h-4.8 M19,70.9L14.3,71 M20.9,72.7L16,72.8 M12.1,34.2l-4.9-0.1
		 M13,29.7H8.4 M14.3,25.7l-5,0.1 M15.2,22.7h-4.6 M16.7,20.3h-4.9 M22.6,74.2l-4.4,0.2 M18,18.2h-4.9 M19.5,16.3h-4.8 M20.9,14.8
		l-4.8-0.1 M22.9,13.3H18"/>
	<path id="Stroke-13" class="st3" d="M35.3,75.9c-8.8,0-15.7-14.4-15.7-31.8S26.7,12,35.5,12 M30.6,75.8c-8.8,0-15.7-14.4-15.7-31.8
		S22,11.9,30.9,11.9"/>
	<path id="Stroke-15" class="st4" d="M19.8,40.5l-4.6-0.3 M19.6,46.1l-4.7-0.2 M20,51.2l-4.7-0.3 M20.6,55.3l-4.5-0.2 M21.6,60.1
		L17,59.8 M22.9,63.3l-4.6-0.2 M24,66.3l-4.8-0.4 M25.5,68.9h-4.6 M26.9,71l-4.5,0.1 M28.8,72.9L24.1,73 M20.4,34.3l-4.7-0.1
		 M21.2,29.8h-4.4 M22.5,25.9L17.7,26 M23.5,22.9h-4.4 M24.9,20.5h-4.7 M30.6,74.4l-4.2,0.2 M26.1,18.4h-4.7 M27.6,16.5h-4.7
		 M28.9,14.9l-4.6-0.1 M30.9,13.5h-4.7"/>
	<g id="Group-26">
		<path id="Fill-16" class="st2" d="M62.5,46.1V4.9c0-1.7,1.5-3,3.3-3h17.8c1.8,0,3.3,1.4,3.3,3v41.2 M59.9,46.1h29.5 M81.7,17.2
			H68.1c-1.3,0-2.4-1-2.4-2.2V7c0-1.2,1.1-2.2,2.4-2.2h13.5c1.3,0,2.3,1,2.3,2.2v8C84,16.2,83,17.2,81.7,17.2"/>
		<path id="Stroke-18" class="st5" d="M62.5,46.1V4.9c0-1.7,1.5-3,3.3-3h17.8c1.8,0,3.3,1.4,3.3,3v41.2
			C86.9,46.1,62.5,46.1,62.5,46.1z M59.9,46.1h29.5C89.4,46.1,59.9,46.1,59.9,46.1z M81.7,17.2H68.1c-1.3,0-2.4-1-2.4-2.2V7
			c0-1.2,1.1-2.2,2.4-2.2h13.5c1.3,0,2.3,1,2.3,2.2v8C84,16.2,83,17.2,81.7,17.2z"/>
		<path id="Fill-20" class="st2" d="M90.2,10.6c2.1,0,2.3,0.4,2.3,2.9v23.6c0,1.5-0.7,2.7-1.6,2.7s-1.6-1.2-1.6-2.7V21.5
			c0-1.9-0.9-3.4-1.9-3.4"/>
		<path id="Stroke-22" class="st5" d="M90.2,10.6c2.1,0,2.3,0.4,2.3,2.9v23.6c0,1.5-0.7,2.7-1.6,2.7s-1.6-1.2-1.6-2.7V21.5
			c0-1.9-0.9-3.4-1.9-3.4"/>
		<path id="Fill-24" class="st0" d="M68.7,35.4c2.2,0,3.7-2.5,2.4-5c-0.7-1.5-2.4-4.1-2.4-4.1s-1.7,2.6-2.4,4.1
			C64.9,32.9,66.4,35.4,68.7,35.4"/>
	</g>
	<polygon id="Fill-27" class="st0" points="82.1,25.3 77.6,32.1 80.8,32.1 79.3,37 83.9,30.4 80.8,30.2 	"/>
	<line id="Stroke-28" class="st5" x1="74.8" y1="23.6" x2="74.8" y2="37.2"/>
	<path id="Stroke-29" class="st6" d="M67.3,32.3c0,0.2,0.1,0.9,1.1,1.2"/>
	<polyline id="Fill-31" class="st2" points="87.1,13.9 90.2,13.9 90.2,9.7 87.1,9.7 	"/>
	<polyline id="Stroke-32" class="st5" points="87.1,13.9 90.2,13.9 90.2,9.7 87.1,9.7 	"/>
</g>
<path id="Arrow-A" class="st7" d="M147.4,67.4h-31.2L98.2,49.2L116.3,31h31.2C147.5,31,147.4,67.4,147.4,67.4z"/>
<g>
	<g class="st8">
		<path class="st9" d="M135,51.3l4.2,1.3c-0.6,2.3-1.7,4.1-3.2,5.2s-3.4,1.7-5.7,1.7c-2.9,0-5.2-1-7-2.9c-1.8-1.9-2.8-4.6-2.8-8
			c0-3.6,0.9-6.3,2.8-8.3c1.8-2,4.3-3,7.3-3c2.6,0,4.8,0.8,6.4,2.3c1,0.9,1.7,2.2,2.2,4l-4.3,1c-0.3-1.1-0.8-2-1.6-2.6s-1.8-1-2.9-1
			c-1.6,0-2.9,0.6-3.9,1.7s-1.5,3-1.5,5.6c0,2.7,0.5,4.6,1.5,5.8s2.2,1.7,3.8,1.7c1.2,0,2.1-0.4,3-1.1S134.7,52.8,135,51.3z"/>
	</g>
	<g class="st8">
		<path class="st10" d="M135,51.3l4.2,1.3c-0.6,2.3-1.7,4.1-3.2,5.2s-3.4,1.7-5.7,1.7c-2.9,0-5.2-1-7-2.9c-1.8-1.9-2.8-4.6-2.8-8
			c0-3.6,0.9-6.3,2.8-8.3c1.8-2,4.3-3,7.3-3c2.6,0,4.8,0.8,6.4,2.3c1,0.9,1.7,2.2,2.2,4l-4.3,1c-0.3-1.1-0.8-2-1.6-2.6s-1.8-1-2.9-1
			c-1.6,0-2.9,0.6-3.9,1.7s-1.5,3-1.5,5.6c0,2.7,0.5,4.6,1.5,5.8s2.2,1.7,3.8,1.7c1.2,0,2.1-0.4,3-1.1S134.7,52.8,135,51.3z"/>
	</g>
	<g class="st8">
		<path class="st9" d="M135,51.3l4.2,1.3c-0.6,2.3-1.7,4.1-3.2,5.2s-3.4,1.7-5.7,1.7c-2.9,0-5.2-1-7-2.9c-1.8-1.9-2.8-4.6-2.8-8
			c0-3.6,0.9-6.3,2.8-8.3c1.8-2,4.3-3,7.3-3c2.6,0,4.8,0.8,6.4,2.3c1,0.9,1.7,2.2,2.2,4l-4.3,1c-0.3-1.1-0.8-2-1.6-2.6s-1.8-1-2.9-1
			c-1.6,0-2.9,0.6-3.9,1.7s-1.5,3-1.5,5.6c0,2.7,0.5,4.6,1.5,5.8s2.2,1.7,3.8,1.7c1.2,0,2.1-0.4,3-1.1S134.7,52.8,135,51.3z"/>
	</g>
</g>
</svg>
