<svg xmlns="http://www.w3.org/2000/svg" width="22.74" height="17.918" viewBox="0 0 22.74 17.918">
    <defs>
        <style>
            .prefix__cls-1{fill:#aed13b}
        </style>
    </defs>
    <g id="prefix__runflat-ico1" transform="translate(-.292 -.503)">
        <path id="prefix__Trazado_1484" d="M26.381 21.5h-.332a.265.265 0 0 0-.249.249c0 .083.083.249.166.249h.5c.083 0 .166-.166.166-.249a.22.22 0 0 0-.251-.249z" class="prefix__cls-1" data-name="Trazado 1484" transform="translate(-4.345 -3.577)"/>
        <path id="prefix__Trazado_1485" d="M27.349 21.5a.249.249 0 1 0 .249.249.22.22 0 0 0-.249-.249z" class="prefix__cls-1" data-name="Trazado 1485" transform="translate(-4.567 -3.577)"/>
        <path id="prefix__Trazado_1486" d="M8.664 21.5h-.5c-.083 0-.166.166-.166.249a.265.265 0 0 0 .251.251h.332a.22.22 0 0 0 .249-.249c0-.085-.083-.251-.166-.251z" class="prefix__cls-1" data-name="Trazado 1486" transform="translate(-1.313 -3.577)"/>
        <path id="prefix__Trazado_1487" d="M7.349 21.5a.249.249 0 1 0 .249.249.22.22 0 0 0-.249-.249z" class="prefix__cls-1" data-name="Trazado 1487" transform="translate(-1.16 -3.577)"/>
        <path id="prefix__Trazado_1488" d="M22.357 11.729v-.415a6.774 6.774 0 0 0-.5-2.24A3.562 3.562 0 0 0 20.7 7.5a2.085 2.085 0 0 0-1.164-.5 2.13 2.13 0 0 0-1.659.664A4.122 4.122 0 0 0 16.8 9.24a9.784 9.784 0 0 0-.5 2.24 8.024 8.024 0 0 0 .415 2.821 4.421 4.421 0 0 0 1.079 1.659 2.165 2.165 0 0 0 1.41.581 2 2 0 0 0 1.496-.581 4.008 4.008 0 0 0 1.159-1.66 4.913 4.913 0 0 0 .498-2.571zm-.415.5a1.23 1.23 0 0 1-.083.581.3.3 0 0 1-.083.249c0 .083-.083.249-.083.332a5.761 5.761 0 0 1-.415 1.079 1.488 1.488 0 0 1-.415.581 1.115 1.115 0 0 1-.581.5.257.257 0 0 1-.166.083h-.083c-.083 0-.083.083-.166.083H19.2a.3.3 0 0 1-.249-.083h-.083c-.083 0-.166-.083-.249-.083l-.083-.083c-.083 0-.083-.083-.166-.083l-.083-.083a3.066 3.066 0 0 1-1.079-1.659c0-.083-.083-.166-.083-.249a5.9 5.9 0 0 1-.249-1.742v-.581c0-.249.083-.5.083-.664 0-.166.083-.332.083-.5a3.182 3.182 0 0 1 1.991-2.489c.083 0 .249-.083.332-.083a1.052 1.052 0 0 1 .5.083c.083 0 .166.083.249.083a.9.9 0 0 0 .332.415l.085.084a1.145 1.145 0 0 1 .249.332l.083.083c.166.083.166.166.249.249 0 .083.083.083.083.166.083.083.083.166.166.249 0 .083.083.083.083.166s.083.166.083.249 0 .083.083.166c0 .083.083.166.083.249s0 .083.083.166c.083.166.083.415.166.581v.083c0 .249.083.5.083.747v.083a1.617 1.617 0 0 0-.083.664z" class="prefix__cls-1" data-name="Trazado 1488" transform="translate(-2.727 -1.107)"/>
        <path id="prefix__Trazado_1489" d="M21.04 17.923h-2.655a6.989 6.989 0 0 0 2.24-2.655 6.5 6.5 0 0 0 .581-1.41 9.787 9.787 0 0 0 .332-1.659 14.063 14.063 0 0 0 0-3.733 8.953 8.953 0 0 0-.913-2.987 5.85 5.85 0 0 0-1.742-2.24 4.173 4.173 0 0 0-2.24-.664h-4.231a1.62 1.62 0 0 0-.581.083 3.666 3.666 0 0 0-1.327.5c0-.166-.083-.249-.166-.415A2.819 2.819 0 0 0 8.1 1.081a1.883 1.883 0 0 0-1.659.664A2.7 2.7 0 0 0 5.028.666a3.4 3.4 0 0 0-3.9 1.493 3.5 3.5 0 0 0-.5 3.733 3.684 3.684 0 0 0 .664.913 3.527 3.527 0 0 0 2.157 4.4 4.164 4.164 0 0 0 1 .166 2.8 2.8 0 0 0 1.41-.415l.5-.5a2.261 2.261 0 0 1 1-.5v1.327a12.562 12.562 0 0 0 .581 3.07v.083a3.131 3.131 0 0 0 .5 1.162 4.99 4.99 0 0 0 .747 1.079A5.809 5.809 0 0 0 10.5 17.84H7.931a.265.265 0 0 0-.249.249c0 .083.083.249.166.249H21.04c.083 0 .166-.083.166-.249zM10.669 4.234c.083-.083.166-.166.166-.249a.29.29 0 0 0 .083-.166h-.249v-.166a3.3 3.3 0 0 1 1.908-.581h-.083a4.061 4.061 0 0 0-1.079 1 7.6 7.6 0 0 0-1.492 2.651A11.052 11.052 0 0 0 9.508 8.3a2.864 2.864 0 0 1-.249-1.079c.083-.166.083-.332.166-.5a4.72 4.72 0 0 0 1-1.41c.075-.411.161-.745.244-1.077zM7.351 9.378a5.288 5.288 0 0 0-.581.166c.083-.249.083-.415.166-.664 0-.166-.083-.249-.166-.249a.265.265 0 0 0-.249.249 1.888 1.888 0 0 1-.83 1.576 2.07 2.07 0 0 1-1.991.249 2.973 2.973 0 0 1-1.908-3.567 2.65 2.65 0 0 0 1.162.249.265.265 0 0 0 .246-.249.22.22 0 0 0-.249-.249 2.14 2.14 0 0 1-1.823-1.162 3.137 3.137 0 0 1 .415-3.236 3.067 3.067 0 0 1 3.4-1.244 1.847 1.847 0 0 1 1.41 1.825.22.22 0 0 0 .249.249.265.265 0 0 0 .249-.249 2.455 2.455 0 0 0-.166-.83 1.5 1.5 0 0 1 1.415-.58 2.453 2.453 0 0 1 1.823 1.327c0 .166.083.332.083.5a1.7 1.7 0 0 1 0 .913c-.083.332-.166.581-.249.83 0 .083-.083.083-.083.166l-.249.5a3.22 3.22 0 0 1-.664.747c-.083 0-.166.166-.166.249a2.322 2.322 0 0 0 .083.5 9.2 9.2 0 0 0 .581 1.908.29.29 0 0 0 .083.166v.083h-.083a1.8 1.8 0 0 0-1.41-.249 1.052 1.052 0 0 0-.498.076zm3.485 8.048h.332c-.166-.166-.249-.332-.415-.5h-.581a.081.081 0 0 1-.083-.083 3.248 3.248 0 0 1-.664-.83.081.081 0 0 0-.083-.083h.747a1.813 1.813 0 0 0-.249-.415.081.081 0 0 0-.083-.083h-.664l-.5-1h.913l-.083-.332v-.166c0-.083 0-.083-.083-.083H8.6c-.083 0-.083 0-.083-.083-.083-.249-.166-.581-.249-.83v-.083h.913c0-.166-.083-.332-.083-.5h-.83c-.083 0-.083 0-.083-.083 0-.166-.083-.332-.083-.5a.748.748 0 0 0-.083-.415h1v-.5h-1v-.898c0-.083 0-.083.083-.083h.908v-.332a1.052 1.052 0 0 1 .5.083v1.41a9.142 9.142 0 0 0 .166 1.493 4.756 4.756 0 0 0 .332 1.162v.166c.083.166.083.249.166.415v.083a6.48 6.48 0 0 0 2.572 3.4 2.3 2.3 0 0 1-1.911-.33zm3.982.5h-.249a4.522 4.522 0 0 1-1.825-.415 5.281 5.281 0 0 1-1.659-1.659 16.582 16.582 0 0 1-.83-1.742c0-.083-.249-.664-.332-1.079a7.533 7.533 0 0 1-.249-1.908v-1.081h.083a.3.3 0 0 0 .249-.083.156.156 0 0 0 0-.249l-.249-.5a1.412 1.412 0 0 1 .083-.581 11.493 11.493 0 0 1 .83-2.738 6.393 6.393 0 0 1 1.162-1.742A3.969 3.969 0 0 1 13.74 3.07a3.721 3.721 0 0 1 .913-.083.081.081 0 0 0-.083.083 3.61 3.61 0 0 1-1.576.83c-.166 0-.249.083-.415.166-.083 0-.166.083-.166.249h.913a3.363 3.363 0 0 0-.415.747.753.753 0 0 1-.581.249 1.355 1.355 0 0 0-.581 0c-.083 0-.166.083-.332.166-.083.083-.166.166-.166.249a5.1 5.1 0 0 0 1.162.083v.083c-.083.249-.249.581-.332.83h-1c-.083 0-.083 0-.083.083a3.593 3.593 0 0 0-.083.415 6.279 6.279 0 0 1 1.244.083l-.249 1h-1.241c-.083 0-.083 0-.083.083 0 .166-.083.249-.083.415h1.327v.332a1.052 1.052 0 0 1-.083.5c0 .083 0 .083-.083.083H10.42v.5h1.327v1H10.42v.5h1.244c.083 0 .083 0 .083.083 0 .249.083.581.083.83v.071H10.5l.083.5h1.327a.081.081 0 0 1 .083.083c.083.332.166.581.249.913H11c.083.166.083.332.166.5h1.162c.083 0 .083 0 .166.083a8.607 8.607 0 0 1 .332.83v.083h-1.161c0 .083.083.166.083.249.166.166.332.166.581.249h.5c.166 0 .332.166.5.332.083.166.249.332.332.5 0 .083.083.083.166.166h-.747a9.986 9.986 0 0 1 1.742.747zm1-.083a4.208 4.208 0 0 1-1.327-.747 6.97 6.97 0 0 1-1.499-1.996 9.476 9.476 0 0 1-.913-3.65 18.71 18.71 0 0 1 0-2.157 9.334 9.334 0 0 1 .83-3.07A8.489 8.489 0 0 1 14.071 4.4a3.376 3.376 0 0 1 1.576-1.079 2.775 2.775 0 0 1 2.157.166A4.055 4.055 0 0 1 19.3 4.649a9.448 9.448 0 0 1 1.327 2.572 11.2 11.2 0 0 1 .5 2.9 14.274 14.274 0 0 1-.166 2.655c-.083.332-.166.747-.249 1.079a12.173 12.173 0 0 1-1 2.24 3.992 3.992 0 0 1-.747.913 3.608 3.608 0 0 1-.581.5 3.746 3.746 0 0 1-2.571.332z" class="prefix__cls-1" data-name="Trazado 1489"/>
    </g>
</svg>
