<svg data-name="Grupo 4167" xmlns="http://www.w3.org/2000/svg" width="20.001" height="21.055" viewBox="0 0 20.001 21.055">
    <defs>
        <clipPath id="r6dnmyfl5a">
            <path data-name="Rectángulo 1899" style="fill:none" d="M0 0h20.001v21.055H0z"/>
        </clipPath>
    </defs>
    <g data-name="Grupo 4166" style="clip-path:url(#r6dnmyfl5a)">
        <path data-name="Trazado 4282" d="M19.64 19.919q-.823-1.532-1.611-3.083Q13.887 8.707 9.748.577C9.627.338 9.559-.038 9.209 0c-.309.04-.371.4-.481.65Q6.285 6.23 3.846 11.811l-.053.028.022.043-.515 1.171-.088.2-.245.56-.088.2-.245.56-.088.2-.245.56-.088.2-.245.56-.088.2-1.654 3.795c-.385.88-.336.965.607.966h18.105c1.247 0 1.277-.06.7-1.131m-2.321.606H4.114q-1.336 0-2.673.012c-.765.005-.757-.184-.485-.8q.626-1.42 1.244-2.841l.088-.2.246-.558.088-.2.246-.558.088-.2.245-.559.088-.2.245-.559.088-.2.245-.559.088-.2.18-.41.088-.2q2.22-5.06 4.432-10.121A3.279 3.279 0 0 1 9.346.982l9.983 19.543H17.32" style="fill:#17100d"/>
        <path data-name="Trazado 4283" d="M18.887 56.042c-.119-.325-.026-.87-.452-.922-.538-.066-.4.588-.645.86a.907.907 0 0 0-.071.09l-.062.088a.265.265 0 0 1-.1-.037c-.1-.06-.125-.177-.19-.261-.2-.254-.21-.746-.622-.707-.338.032-.373.467-.494.737l-.079.177-.089.2-.247.556-.089.2-.247.556-.088.2-.18.408-.088.2-.246.558-.088.2-.246.558-.088.2-.247.557-.088.2-.247.557-.089.2c-.082.185-.166.369-.249.553l-.089.2c-.151.337-.3.675-.454 1.012-.3.661-.069.771.541.77h14.2c.865 0 .907-.083.49-.863q-2.458-4.6-4.928-9.2c-.128-.237-.231-.629-.535-.594-.392.045-.3.5-.363.771-.074.349-.139.7-.2 1.053l-.049.274q-.062.355-.122.713l-.047.277-.082.482a.581.581 0 0 1-.16-.112c-.255-.246-.3-.679-.569-.711a.321.321 0 0 0-.128.011.412.412 0 0 0-.278.244.942.942 0 0 0-.066.243c-.032.208-.029.444-.077.634l-.042.164-.063.249c-.057.226-.114.456-.173.7l-.062.25-.172.7-.601-1.137c-.23-.723-.4-1.4-.639-2.061m-.533.207.115.218c.185.806.419 1.554.662 2.278l-1.065-2.017a7.85 7.85 0 0 0 .288-.479m-4.8 7.139.252-.569.3.569zm.746 0-.406-.769.247-.557.7 1.326zm.734 0-.805-1.526.247-.557 1.1 2.083zm.734 0-1.2-2.283.246-.557 1.5 2.84zm.734 0-1.6-3.04.247-.557 1.9 3.6zm.734 0-2-3.8.247-.557 2.3 4.354zm.734 0-2.4-4.554.181-.408 2.619 4.961zm.59 0-2.724-5.161.247-.557 3.016 5.721zm.734 0-3.121-5.915.247-.557 3.418 6.475zm.734 0-3.523-6.675.216-.489 3.781 7.163zm.668 0L17.09 56.55c.444.481.629.59.862.329l1.526 2.892c.074.22.148.44.219.661s.064.577.411.556h.011l1.268 2.4zm.882 0-1.3-2.459c.15-.115.106-.372.15-.548l.032-.13 1.656 3.137zm1.37-9 4.825 9h-.464L22.834 54.9a8.33 8.33 0 0 1 .118-.517m-.168.79 4.335 8.213h-.541l-3.914-7.415c.036-.262.073-.529.119-.8m-.16 1.089 3.76 7.124h-.5l-3.379-6.4c.046-.237.083-.478.117-.722m-.172.985 3.24 6.139h-.438L22.3 57.794a5.652 5.652 0 0 0 .151-.545m-.318.973c.032-.069.061-.14.089-.21l2.837 5.376h-.541l-3.186-6.037c.3.265.357.71.8.871m-.975-.834 3.167 6h-.54l-2.795-5.3.169-.7m-.229.957 2.661 5.043h-.54l-2.29-4.339.169-.7m-.23.956 2.157 4.087h-.541L20.528 60l.171-.7m-.647.166v.014c-.016-.035-.029-.069-.045-.1z" transform="translate(-10.669 -44.145)" style="fill:#17100d"/>
    </g>
</svg>
