<?xml version="1.0" encoding="utf-8"?>
<!-- Generator: Adobe Illustrator 27.0.0, SVG Export Plug-In . SVG Version: 6.00 Build 0)  -->
<svg version="1.1" id="Layer_1" xmlns="http://www.w3.org/2000/svg" xmlns:xlink="http://www.w3.org/1999/xlink" x="0px" y="0px"
	 viewBox="0 0 150 102.3" style="enable-background:new 0 0 150 102.3;" xml:space="preserve">
<style type="text/css">
	.st0{fill-rule:evenodd;clip-rule:evenodd;}
	.st1{enable-background:new    ;}
	.st2{fill-rule:evenodd;clip-rule:evenodd;fill:#FEFEFE;}
</style>
<g>
	<path class="st0" d="M36.8,39v0.1c-8.7,0-15.5,13.7-15.5,31.3c0,16.4,6.5,29.9,14.7,31.1c8.7-0.6,15.7-14.4,15.7-31.3
		S45.1,40.3,36.8,39z M37.8,91c-5,0-9.1-9.7-9.1-21.6s4.1-21.6,9.1-21.6s9,9.7,9.1,21.6C46.9,81.3,42.8,91,37.8,91z"/>
	<path class="st0" d="M37,49.1c-2.4,0-4.5,3-6,7.6l0.3-0.5c2.7,0,5.1,7.1,5.1,14.4s-2.2,13.1-4.9,13.2c1.4,3.8,3.3,6.1,5.5,6.1
		c4.2,0,7.7-9.1,7.7-20.4S41.3,49.1,37,49.1z"/>
	<g>
		<path class="st0" d="M7.3,51.8l4.3-0.1c0.3-0.8,0.6-1.5,0.9-2.2H8.2C7.9,50.2,7.5,51,7.3,51.8L7.3,51.8z"/>
		<path class="st0" d="M8.5,48.8h4.3c0.3-0.6,0.6-1.2,0.9-1.8H9.5C9.1,47.6,8.8,48.2,8.5,48.8z"/>
		<path class="st0" d="M4.1,70.1c0,0.5,0,1.1,0,1.6l4.3,0.2c0-0.5,0-1,0-1.6c0-1.1,0-2.2,0.1-3.3l-4.3-0.3C4.2,67.9,4.1,69,4.1,70.1
			L4.1,70.1z"/>
		<path class="st0" d="M6,55.7h4.3c0.3-1.2,0.6-2.3,1-3.3L7,52.5C6.6,53.5,6.3,54.6,6,55.7L6,55.7z"/>
		<path class="st0" d="M5,60.1l4.3,0.1c0.2-1.3,0.5-2.6,0.8-3.8H5.8C5.5,57.6,5.2,58.8,5,60.1z"/>
		<path class="st0" d="M4.3,66.1l4.3,0.3c0.1-1.9,0.3-3.8,0.6-5.5l-4.3-0.1C4.6,62.5,4.4,64.3,4.3,66.1z"/>
		<path class="st0" d="M11.2,44.3h4.2c0.3-0.5,0.7-0.9,1-1.3h-4.2C11.9,43.4,11.5,43.8,11.2,44.3z"/>
		<path class="st0" d="M20.1,100.9l-2.9,0.1c0.5,0.2,1,0.3,1.5,0.4h2.4C20.8,101.3,20.5,101.1,20.1,100.9z"/>
		<path class="st0" d="M9.1,70.3c0,12.6,3.8,23.4,9.3,28.5l0,0l0,0c1.4,1.3,2.9,2.2,4.5,2.6h1.4c-0.1-0.1-0.2-0.1-0.4-0.2h-0.1v-0.1
			C17.1,97.3,12.2,85,12.2,70.3s5.4-28,12.5-31.5h-1.2C15.4,40.8,9.1,54.2,9.1,70.3L9.1,70.3z"/>
		<path class="st0" d="M14.5,40.7l4,0.1v0c0.4-0.3,0.7-0.6,1.1-0.9h-4v0C15.2,40.2,14.9,40.4,14.5,40.7z"/>
		<path class="st0" d="M9.9,46.3h4.2c0.3-0.5,0.6-0.9,0.8-1.3h-4.2C10.4,45.4,10.1,45.9,9.9,46.3z"/>
		<path class="st0" d="M12.8,42.3H17c0.3-0.3,0.5-0.6,0.8-0.9l-4.1-0.1C13.4,41.7,13.1,42,12.8,42.3L12.8,42.3z"/>
		<path class="st0" d="M13.8,98.9l3.8-0.1c-0.4-0.4-0.8-0.8-1.1-1.3l-3.9,0.1C13,98.1,13.4,98.5,13.8,98.9L13.8,98.9z"/>
		<path class="st0" d="M19.2,100.3c-0.3-0.2-0.6-0.5-1-0.8l-3.6,0.1c0.4,0.3,0.9,0.6,1.3,0.8L19.2,100.3z"/>
		<path class="st0" d="M15.9,96.9c-0.4-0.5-0.7-0.9-1-1.5h-4.1c0.4,0.5,0.8,1.1,1.2,1.5L15.9,96.9L15.9,96.9z"/>
		<path class="st0" d="M15.8,101.1L15.8,101.1L15.8,101.1C8.7,97.3,3.5,84.8,3.5,70.1s5.4-27.5,12.6-31.3C7.2,39.1,0,53,0,70.1
			s7.3,31.3,16.3,31.3h0.3C16.3,101.3,16.1,101.2,15.8,101.1L15.8,101.1z"/>
		<path class="st0" d="M8.8,77.1c-0.2-1.5-0.3-3-0.3-4.5l-4.3-0.2c0.1,1.5,0.2,3,0.3,4.4L8.8,77.1L8.8,77.1z"/>
		<path class="st0" d="M16.7,39.3h3.9c0.3-0.2,0.6-0.3,1-0.5h-3.6C17.5,39,17.1,39.1,16.7,39.3L16.7,39.3z"/>
		<path class="st0" d="M9.5,81.2c-0.2-1.1-0.4-2.3-0.5-3.4l-4.3-0.3c0.2,1.2,0.3,2.4,0.6,3.5L9.5,81.2L9.5,81.2z"/>
		<path class="st0" d="M10.6,85.9c-0.4-1.3-0.7-2.6-1-4l-4.3-0.2c0.3,1.4,0.6,2.7,1,3.9L10.6,85.9L10.6,85.9z"/>
		<path class="st0" d="M7.4,88.9l4.2,0.2c-0.3-0.8-0.6-1.7-0.9-2.6v0l-4.3-0.3c0.3,0.9,0.6,1.9,1,2.8L7.4,88.9L7.4,88.9z"/>
		<path class="st0" d="M14.4,94.8c-0.4-0.6-0.8-1.3-1.1-1.9L9,92.5c0.4,0.8,0.9,1.6,1.3,2.3L14.4,94.8L14.4,94.8z"/>
		<path class="st0" d="M13,92.2c-0.4-0.8-0.7-1.6-1.1-2.4l-4.3-0.2c0.3,0.8,0.6,1.5,1,2.2C8.6,91.8,13,92.2,13,92.2z"/>
	</g>
	<path class="st0" d="M16.2,89.8c0.3,0.8,0.6,1.5,1,2.3l4.2,0.3c-0.4-0.8-0.7-1.6-1-2.4C20.3,90,16.2,89.8,16.2,89.8z"/>
	<path class="st0" d="M19.2,86.8L15,86.5c0.3,0.9,0.6,1.8,0.9,2.6l4.2,0.2c-0.3-0.9-0.6-1.8-0.9-2.7V86.8z"/>
	<path class="st0" d="M13.5,61c-0.3,1.7-0.5,3.5-0.6,5.4l4.1,0.3c0.1-1.9,0.3-3.8,0.6-5.5L13.5,61L13.5,61z"/>
	<path class="st0" d="M13.3,77.7c0.1,1.2,0.3,2.4,0.5,3.5l4.2,0.2c-0.2-1.1-0.4-2.3-0.5-3.5L13.3,77.7L13.3,77.7z"/>
	<path class="st0" d="M12.9,67c-0.1,1.1-0.1,2.2-0.1,3.4c0,0.5,0,1.1,0,1.6l4.1,0.2c0-0.6,0-1.1,0-1.7c0-1.1,0-2.1,0.1-3.2L12.9,67
		L12.9,67z"/>
	<path class="st0" d="M13.9,81.9c0.3,1.4,0.6,2.7,0.9,3.9l4.2,0.3c-0.4-1.3-0.7-2.7-1-4.1L13.9,81.9L13.9,81.9z"/>
	<path class="st0" d="M22.9,99.7c0.4,0.3,0.9,0.6,1.3,0.9l3.3-0.2c-0.3-0.2-0.6-0.5-1-0.8C26.5,99.7,22.8,99.7,22.9,99.7z"/>
	<path class="st0" d="M26,101.4h3c-0.3-0.1-0.5-0.3-0.8-0.4v0.1l-2.9,0.1C25.6,101.3,25.8,101.4,26,101.4L26,101.4z"/>
	<path class="st0" d="M21.7,93.1l-4.2-0.3c0.4,0.8,0.8,1.5,1.2,2.2h4C22.3,94.3,22,93.7,21.7,93.1L21.7,93.1L21.7,93.1z"/>
	<path class="st0" d="M19.1,95.6c0.4,0.6,0.8,1.1,1.2,1.7l3.9-0.1c-0.4-0.5-0.7-1-1.1-1.6H19.1L19.1,95.6z"/>
	<path class="st0" d="M20.8,97.8c0.4,0.5,0.8,0.9,1.3,1.3l3.7-0.1c-0.4-0.4-0.8-0.8-1.1-1.3C24.7,97.8,20.8,97.8,20.8,97.8z"/>
	<path class="st0" d="M17.4,77.3c-0.2-1.5-0.3-3-0.3-4.6l-4.1-0.2c0.1,1.5,0.2,3,0.3,4.4L17.4,77.3L17.4,77.3z"/>
	<path class="st0" d="M25.9,41.7L22,41.6v-0.1c-0.3,0.3-0.7,0.7-1,1h4.1C25.3,42.2,25.6,41.9,25.9,41.7L25.9,41.7z"/>
	<path class="st0" d="M29.7,38.8h-3.2c-0.6,0.2-1.2,0.4-1.8,0.7h3.7C28.9,39.3,29.3,39,29.7,38.8z"/>
	<path class="st0" d="M27.5,40.2h-3.8v0c-0.4,0.2-0.7,0.5-1.1,0.8l3.9,0.1C26.8,40.7,27.2,40.4,27.5,40.2z"/>
	<path class="st0" d="M20.7,70.3c0-16.3,5.6-29.1,13.4-31.5h-2.3C23.8,40.5,17.6,54,17.6,70.4c0,15.5,5.6,28.4,12.9,31h3.1
		C26.1,98.4,20.7,85.8,20.7,70.3z"/>
	<path class="st0" d="M22,47.2h-4.1c-0.3,0.6-0.6,1.2-0.9,1.9h4.2C21.4,48.4,21.7,47.8,22,47.2z"/>
	<path class="st0" d="M24.5,43.2h-4v-0.1c-0.3,0.4-0.7,0.9-1,1.3h4.1C23.9,44,24.2,43.6,24.5,43.2L24.5,43.2z"/>
	<path class="st0" d="M19.7,52.6l-4.2,0.1c-0.4,1-0.7,2.1-0.9,3.3h4.2C19,54.8,19.3,53.6,19.7,52.6L19.7,52.6z"/>
	<path class="st0" d="M20.8,49.7h-4.2c-0.3,0.8-0.6,1.5-0.9,2.3l4.2-0.1C20.2,51.1,20.5,50.4,20.8,49.7L20.8,49.7z"/>
	<path class="st0" d="M23.2,45.1h-4.1c-0.3,0.5-0.6,1-0.9,1.5h4.1C22.6,46,22.9,45.5,23.2,45.1z"/>
	<path class="st0" d="M18.6,56.6h-4.2v0c-0.3,1.2-0.6,2.5-0.8,3.8l4.1,0.1C18,59.1,18.3,57.8,18.6,56.6z"/>
</g>
<g class="st1">
	<path d="M63.7,98H62l-1.1-3.2h-5L54.7,98h-1.6l4.2-11.6h2.1L63.7,98z M60.4,93.4l-2-5.7l-2,5.7H60.4z"/>
</g>
<g class="st1">
	<path d="M81.1,92.6c0,0.8-0.2,1.6-0.5,2.3s-0.8,1.2-1.4,1.7c-0.7,0.5-1.4,0.9-2.3,1.1S75,98,73.7,98h-7.6V80.5h6.8
		c1.4,0,2.4,0,3.1,0.1c0.7,0.1,1.3,0.3,1.9,0.6c0.7,0.3,1.2,0.8,1.5,1.4s0.5,1.2,0.5,1.9c0,0.8-0.2,1.6-0.7,2.2s-1.1,1.1-1.9,1.5
		v0.1c1.1,0.2,2,0.7,2.7,1.4S81.1,91.5,81.1,92.6z M75.3,85.5c0-0.3-0.1-0.6-0.2-0.9s-0.4-0.5-0.8-0.6c-0.3-0.1-0.7-0.2-1.2-0.2
		s-1.2,0-2.1,0h-0.4v3.7h0.7c0.7,0,1.3,0,1.8,0s0.9-0.1,1.2-0.2c0.4-0.2,0.7-0.4,0.8-0.7S75.3,85.8,75.3,85.5z M76.4,92.6
		c0-0.6-0.1-1-0.3-1.3c-0.2-0.3-0.6-0.5-1.1-0.7c-0.4-0.1-0.8-0.2-1.5-0.2s-1.3,0-1.9,0h-1v4.3h0.3c1.3,0,2.2,0,2.7,0s1-0.1,1.5-0.3
		c0.5-0.2,0.8-0.5,1-0.8C76.3,93.4,76.4,93,76.4,92.6z"/>
</g>
<g class="st1">
	<path d="M92.7,97.1c-0.3,0.1-0.5,0.2-0.8,0.4s-0.5,0.2-0.9,0.3c-0.3,0.1-0.7,0.2-1,0.3s-0.8,0.1-1.2,0.1c-0.8,0-1.6-0.1-2.3-0.4
		s-1.3-0.6-1.8-1.1c-0.5-0.5-0.9-1.1-1.2-1.9s-0.4-1.6-0.4-2.7c0-1,0.1-1.8,0.4-2.6s0.7-1.4,1.2-1.9c0.5-0.5,1.1-0.9,1.8-1.2
		s1.5-0.4,2.3-0.4c0.6,0,1.2,0.1,1.9,0.2s1.3,0.4,2.1,0.8V89h-0.1c-0.6-0.5-1.3-0.9-1.9-1.2s-1.3-0.4-2-0.4c-0.6,0-1.1,0.1-1.6,0.3
		s-0.9,0.5-1.3,0.9c-0.4,0.4-0.6,0.9-0.8,1.5s-0.3,1.3-0.3,2.1c0,0.8,0.1,1.5,0.3,2.1s0.5,1.1,0.9,1.4c0.4,0.4,0.8,0.7,1.3,0.9
		s1,0.3,1.5,0.3c0.7,0,1.4-0.1,2.1-0.4s1.3-0.6,1.8-1.1h0.1V97.1z"/>
</g>
<path id="Fill-20" class="st2" d="M93.7,1.7v76.5L64.1,59.9H30.7V20.5h33.4L93.7,1.7z"/>
<path d="M93.7,79c-0.2,0-0.3,0-0.4-0.1L63.9,60.7H30.7c-0.4,0-0.8-0.4-0.8-0.8V20.5c0-0.4,0.4-0.8,0.8-0.8h33.2L93.3,1.1
	c0.2-0.2,0.6-0.2,0.8,0c0.3,0.1,0.4,0.4,0.4,0.7v76.5c0,0.3-0.2,0.6-0.4,0.7C94,79,93.8,79,93.7,79L93.7,79z M31.5,59.1h32.6
	c0.2,0,0.3,0,0.4,0.1l28.4,17.5V3.2l-28.4,18c-0.1,0.1-0.3,0.1-0.4,0.1H31.5C31.5,21.3,31.5,59.1,31.5,59.1z M129.9,66.8
	c-0.1,0-0.2,0-0.3-0.1c-0.4-0.2-0.6-0.6-0.4-1c3.4-8.3,5.1-16.9,5.1-25.7c0-10.4-2.4-20.8-7-29.8c-0.2-0.4,0-0.9,0.3-1.1
	s0.9,0,1.1,0.4c4.7,9.3,7.2,19.9,7.2,30.6c0,9-1.8,17.8-5.3,26.3C130.5,66.6,130.2,66.8,129.9,66.8L129.9,66.8z M118.9,62
	c-0.1,0-0.2,0-0.3-0.1c-0.4-0.2-0.6-0.6-0.4-1c2.8-6.7,4.1-13.8,4.1-20.9c0-8.3-1.9-16.7-5.6-24.2c-0.2-0.4,0-0.9,0.4-1.1
	s0.9,0,1.1,0.4c3.8,7.8,5.8,16.4,5.8,25c0,7.4-1.4,14.6-4.3,21.5C119.5,61.8,119.2,62,118.9,62z M107.5,57.9c-0.1,0-0.2,0-0.3-0.1
	c-0.4-0.2-0.6-0.6-0.4-1c2.2-5.3,3.3-11,3.3-16.8c0-6.7-1.5-13.2-4.5-19.5c-0.2-0.4,0-0.9,0.4-1.1s0.9,0,1.1,0.4
	c3.1,6.4,4.7,13.2,4.7,20.1c0,6-1.2,11.9-3.5,17.4C108.1,57.8,107.8,57.9,107.5,57.9z"/>
</svg>
