<svg data-name="Grupo 4165" xmlns="http://www.w3.org/2000/svg" width="23.791" height="20.841" viewBox="0 0 23.791 20.841">
    <defs>
        <clipPath id="vlztfcz5ga">
            <path data-name="Rectángulo 1898" style="fill:none" d="M0 0h23.791v20.841H0z"/>
        </clipPath>
    </defs>
    <g data-name="Grupo 4164" style="clip-path:url(#vlztfcz5ga)">
        <path data-name="Trazado 4280" d="M5.99 11.76c.453-1.008.876-1.931 1.284-2.86l3.6-8.231c.115-.26.146-.639.507-.667.43-.034.47.394.595.663.744 1.611 1.467 3.232 2.229 4.92.369-.288.41-.651.57-.94.113-.2.146-.511.437-.531.338-.023.42.293.54.526q1.465 2.843 2.924 5.688 2.359 4.614 4.708 9.233c.636 1.257.618 1.275-.75 1.276q-10.909.006-21.819 0c-.891 0-.973-.111-.629-.929q1.914-4.553 3.845-9.1c.347-.817.524-.836 1.067-.159.268.335.537.669.89 1.107M11.5 1.332c-.294.137-.328.368-.412.559C9.68 5.1 8.23 8.3 6.878 11.536c-.714 1.71-.94 1.587-1.772.245-.278-.449-.506-.589-.772.06q-1.552 3.784-3.177 7.537c-.254.591-.2.786.511.784 6.789-.023 13.578-.016 20.368-.019.848 0 .854-.017.466-.777l-4.642-9.092c-.829-1.622-1.664-3.242-2.517-4.9a4.154 4.154 0 0 0-.659 1.2c-.285.5-.542.471-.794-.016-.111-.216-.21-.438-.31-.66q-1.037-2.285-2.08-4.566" style="fill:#17100d"/>
        <path data-name="Trazado 4281" d="M13.853 15.5c.048-.363-.493-.7-.055-.972s.484.374.771.478c.186-.061.17-.214.2-.339.052-.222.122-.449.405-.4.356.057.313.373.238.578a2.368 2.368 0 0 0 .536 2.466c.447.546.911.527 1.25-.074a1.843 1.843 0 0 0 .19-1.766c-.125-.284-.421-.737.007-.938.5-.236.416.423.685.625.375-.088.285-1 .845-.634.538.355-.263.769-.14 1.218.07 0 .148.01.226.01.31 0 .777-.37.868.17.078.46-.456.462-.773.526a1.632 1.632 0 0 0-1.271.977c-.248.519-.185.978.21 1.215a1.424 1.424 0 0 0 1.656-.085 7.69 7.69 0 0 0 .668-.706c.166-.17.35-.421.611-.216.3.238.093.473-.087.686-.085.1-.16.209-.238.312.154.28.4.134.588.17.251.049.606-.041.586.369-.015.333-.315.306-.557.32-.107.006-.213.023-.344.037.009.089-.008.177.028.227.164.229.522.456.162.737-.331.258-.559-.1-.719-.313a1.977 1.977 0 0 0-1.953-.687c-.618.057-.823.445-.506.989s.634 1.119 1.394 1.225c.355.05.981 0 .909.545s-.65.048-.954.213c-.059.411.733.763.186 1.118-.5.322-.53-.458-.878-.6-.037.022-.093.036-.117.072-.161.241-.086.772-.559.632-.441-.13-.247-.558-.14-.834a1.964 1.964 0 0 0-.447-2.017.617.617 0 0 0-.976-.1c-.351.615-1.018 1.189-.629 2.048a1.676 1.676 0 0 1 .091.31c.074.314.417.711-.062.908-.43.177-.406-.395-.658-.584-.278.083-.333.682-.731.417-.459-.3.106-.673.028-1.019a.349.349 0 0 0-.074-.041c-.34-.089-.906.461-1-.188-.079-.528.572-.447.919-.559 1.032-.335 1.6-1.375 1.1-2.106a1.64 1.64 0 0 0-2.127-.155c-.212.208-.4.437-.605.656-.176.192-.39.357-.627.151-.257-.225-.044-.433.107-.624.08-.1.157-.206.241-.318-.232-.295-.8.008-.825-.507-.022-.406.4-.269.58-.438.071-.171-.085-.232-.159-.33-.133-.173-.3-.351-.09-.564.241-.239.471-.085.624.107a2.207 2.207 0 0 0 2.119.891c.776-.086 1.081-.558.69-1.229-.35-.6-.641-1.248-1.5-1.32-.339-.028-.919-.036-.861-.526.066-.551.614-.161.94-.2" transform="translate(-4.058 -5.029)" style="fill:#17100d"/>
    </g>
</svg>
