<?xml version="1.0" encoding="UTF-8"?>
<svg id="Layer_1" data-name="Layer 1" xmlns="http://www.w3.org/2000/svg" viewBox="0 0 390 332">
  <defs>
    <style>
      .cls-1, .cls-2, .cls-3, .cls-4, .cls-5, .cls-6, .cls-7, .cls-8, .cls-9 {
        fill: none;
      }

      .cls-1, .cls-2, .cls-3, .cls-8, .cls-9 {
        stroke: #fff;
      }

      .cls-1, .cls-5, .cls-6 {
        stroke-linecap: round;
        stroke-linejoin: round;
      }

      .cls-2 {
        stroke-width: .68px;
      }

      .cls-2, .cls-3, .cls-4, .cls-10, .cls-11, .cls-7, .cls-12, .cls-8, .cls-13, .cls-9, .cls-14, .cls-15, .cls-16, .cls-17, .cls-18, .cls-19 {
        stroke-miterlimit: 8;
      }

      .cls-3 {
        stroke-width: .67px;
      }

      .cls-4, .cls-20, .cls-7, .cls-21 {
        font-family: Arial-BoldMT, Arial;
        font-size: 30px;
        font-weight: 700;
        isolation: isolate;
      }

      .cls-4, .cls-6, .cls-10, .cls-11, .cls-7, .cls-12, .cls-13, .cls-14, .cls-15, .cls-16, .cls-17, .cls-18, .cls-19 {
        stroke: #000;
      }

      .cls-4, .cls-7 {
        stroke-width: .4px;
      }

      .cls-20, .cls-21, .cls-22 {
        fill: #fff;
      }

      .cls-5 {
        stroke: #231f20;
      }

      .cls-5, .cls-6 {
        stroke-width: 1.6px;
      }

      .cls-10 {
        fill: #fff101;
      }

      .cls-10, .cls-11, .cls-12, .cls-13, .cls-23, .cls-22, .cls-24, .cls-14, .cls-15, .cls-16, .cls-17, .cls-18, .cls-19 {
        fill-rule: evenodd;
      }

      .cls-10, .cls-11, .cls-12, .cls-13, .cls-14, .cls-15, .cls-16, .cls-17, .cls-18, .cls-19 {
        stroke-width: .3px;
      }

      .cls-11 {
        fill: #91c33f;
      }

      .cls-7, .cls-21 {
        letter-spacing: -.04em;
      }

      .cls-12 {
        fill: #d8232a;
      }

      .cls-8 {
        stroke-width: .68px;
      }

      .cls-13 {
        fill: #f3b229;
      }

      .cls-9 {
        stroke-width: .66px;
      }

      .cls-23 {
        fill: #231f20;
      }

      .cls-14 {
        fill: #005b9c;
      }

      .cls-15 {
        fill: #0076b0;
      }

      .cls-16 {
        fill: #009949;
      }

      .cls-17 {
        fill: #acdcec;
      }

      .cls-18 {
        fill: #4e9cc9;
      }

      .cls-19 {
        fill: #74b7d9;
      }
    </style>
  </defs>
  <g id="Icon">
    <g id="Group-11">
      <path id="Fill-1" class="cls-23" d="M61.1,88.31c-8.9,0-16.1-14-16.1-31.3s7.2-31.3,16.1-31.3h18.9c8.9,0,16.1,14,16.1,31.3s-7.2,31.3-16.1,31.3h-18.9Z"/>
      <path id="Stroke-3" class="cls-8" d="M81.8,88.71c-9,0-16-14.1-16-31.5s6.7-31.6,15.6-31.6"/>
      <path id="Fill-5" class="cls-22" d="M82.4,34.81c-4.9,0-9,9.7-9,21.6s4,21.6,9,21.6,9-9.7,9-21.6-4.1-21.6-9-21.6m-.8,42.1c-4.2,0-7.6-9.1-7.6-20.4s3.4-20.4,7.6-20.4,7.6,9.1,7.6,20.4-3.4,20.4-7.6,20.4"/>
      <path id="Fill-7" class="cls-22" d="M76,43.11l-.8,1.4-.9,4.4-.4,4.9-.2,6.4,1.2,7,1.2,3.6c2.7,0,4.9-5.9,4.9-13.2-.1-7.4-2.3-14.5-5-14.5"/>
      <path id="Stroke-9" class="cls-2" d="M70.2,89.01c-9.1,0-16.4-14.4-16.4-31.8s7.4-32.1,16.6-32.1m-5.1,63.8c-9.1,0-16.4-14.4-16.4-31.8s7.4-32.1,16.6-32.1"/>
    </g>
    <path id="Stroke-12" class="cls-3" d="M53.9,53.7l-4.8-.3m4.7,5.8l-4.9-.2m5.2,5.3l-4.9-.3m5.5,4.5l-4.7-.2m5.8,4.9l-4.8-.3m6.1,3.5l-4.7-.2m6,3.2l-5-.4m6.5,3h-4.8m6.3,2.2l-4.7,.1m6.6,1.7l-4.8,.1m-3.9-38.6l-4.9-.1m5.8-4.4h-4.6m5.9-4l-5,.1m5.9-3.1h-4.6m6.1-2.4h-4.9m10.8,53.9l-4.4,.2m-.2-56.2h-4.9m6.4-1.9h-4.8m6.2-1.5l-4.8-.1m6.8-1.4h-4.9"/>
    <path id="Stroke-13" class="cls-3" d="M77.8,89.2c-8.8,0-15.7-14.4-15.7-31.8s7.1-32.1,15.9-32.1m-4.9,63.8c-8.8,0-15.7-14.4-15.7-31.8s7.1-32.1,15.9-32.1"/>
    <path id="Stroke-15" class="cls-9" d="M62.2,53.8l-4.6-.3m4.5,5.9l-4.7-.2m5,5.3l-4.7-.3m5.3,4.4l-4.5-.2m5.5,5l-4.6-.3m5.9,3.5l-4.6-.2m5.8,3.2l-4.8-.4m6.3,3h-4.6m6,2.1l-4.5,.1m6.3,1.8l-4.6,.1m-3.7-38.7l-4.7-.1m5.5-4.4h-4.4m5.6-3.9l-4.8,.1m5.8-3.1h-4.4m5.8-2.4h-4.7m10.4,53.9l-4.2,.2m-.3-56.2h-4.7m6.2-1.9h-4.7m6-1.6l-4.6-.1m6.6-1.3h-4.7"/>
    <g id="Group-26">
      <path id="Fill-16" class="cls-22" d="M104.9,59.41V18.21c0-1.7,1.5-3,3.3-3h17.8c1.8,0,3.3,1.4,3.3,3V59.41m-27,0h29.5m-7.7-28.9h-13.6c-1.3,0-2.4-1-2.4-2.2v-8c0-1.2,1.1-2.2,2.4-2.2h13.5c1.3,0,2.3,1,2.3,2.2v8c.1,1.2-.9,2.2-2.2,2.2"/>
      <path id="Stroke-18" class="cls-5" d="M104.9,59.41V18.21c0-1.7,1.5-3,3.3-3h17.8c1.8,0,3.3,1.4,3.3,3V59.41h-24.4Zm-2.6,0h0Zm21.8-28.9h-13.6c-1.3,0-2.4-1-2.4-2.2v-8c0-1.2,1.1-2.2,2.4-2.2h13.5c1.3,0,2.3,1,2.3,2.2v8c.1,1.2-.9,2.2-2.2,2.2Z"/>
      <path id="Fill-20" class="cls-22" d="M132.7,23.91c2.1,0,2.3,.4,2.3,2.9v23.6c0,1.5-.7,2.7-1.6,2.7s-1.6-1.2-1.6-2.7v-15.6c0-1.9-.9-3.4-1.9-3.4"/>
      <path id="Stroke-22" class="cls-5" d="M132.7,23.91c2.1,0,2.3,.4,2.3,2.9v23.6c0,1.5-.7,2.7-1.6,2.7s-1.6-1.2-1.6-2.7v-15.6c0-1.9-.9-3.4-1.9-3.4"/>
      <path id="Fill-24" class="cls-23" d="M111.1,48.71c2.2,0,3.7-2.5,2.4-5-.7-1.5-2.4-4.1-2.4-4.1,0,0-1.7,2.6-2.4,4.1-1.3,2.5,.2,5,2.4,5"/>
    </g>
    <polygon id="Fill-27" class="cls-23" points="124.5 38.6 120 45.4 123.3 45.4 121.8 50.3 126.4 43.7 123.2 43.5 124.5 38.6"/>
    <line id="Stroke-28" class="cls-5" x1="117.2" y1="36.9" x2="117.2" y2="50.5"/>
    <path id="Stroke-29" class="cls-1" d="M109.8,45.6c0,.2,.1,.9,1.1,1.2"/>
    <polyline id="Fill-31" class="cls-22" points="129.5 27.2 132.6 27.2 132.6 23 129.5 23"/>
    <polyline id="Stroke-32" class="cls-5" points="129.5 27.2 132.6 27.2 132.6 23 129.5 23"/>
  </g>
  <g id="Energy-class">
    <g id="E">
      <path id="Arrow-E" class="cls-12" d="M90.1,278.3l18.2,18.1-18.2,18.1H-.1v-36.3H90.1v.1Z"/>
      <text class="cls-20" transform="translate(8 306.4)"><tspan x="0" y="0">E</tspan></text>
      <text class="cls-4" transform="translate(8 306.4)"><tspan x="0" y="0">E</tspan></text>
    </g>
    <g id="D">
      <path id="Arrow-D" class="cls-13" d="M80.1,234.3l18.2,18.1-18.2,18.1H-.1v-36.3H80.1v.1Z"/>
      <text class="cls-20" transform="translate(8 262.4)"><tspan x="0" y="0">D</tspan></text>
      <text class="cls-4" transform="translate(8 262.4)"><tspan x="0" y="0">D</tspan></text>
    </g>
    <g id="C">
      <path id="Arrow-C" class="cls-10" d="M68.1,188.3l18.2,18.1-18.2,18.1H-.1v-36.3H68.1v.1Z"/>
      <text class="cls-20" transform="translate(8 216.4)"><tspan x="0" y="0">C</tspan></text>
      <text class="cls-4" transform="translate(8 216.4)"><tspan x="0" y="0">C</tspan></text>
    </g>
    <g id="B">
      <path id="Arrow-B" class="cls-11" d="M56.1,142.3l18.1,18.1-18.2,18.1H-.1v-36.3H56.1v.1Z"/>
      <text class="cls-20" transform="translate(8 170.4)"><tspan x="0" y="0">B</tspan></text>
      <text class="cls-4" transform="translate(8 170.4)"><tspan x="0" y="0">B</tspan></text>
    </g>
    <g id="A">
      <path id="Arrow-A" class="cls-16" d="M-.1,98.3H44.1l18.1,18.1-18.1,18.2H-.1v-36.3Z"/>
      <text class="cls-21" transform="translate(8 124.4)"><tspan x="0" y="0">A</tspan></text>
      <text class="cls-7" transform="translate(8 124.4)"><tspan x="0" y="0">A</tspan></text>
    </g>
  </g>
  <g id="Icon-2" data-name="Icon">
    <g id="Group-43">
      <path id="Fill-39" class="cls-22" d="M355.2,28.5c0-4.3-3.6-7.9-8.1-7.9-.4,0-.8,.1-1.2,.1-.3-4-3.8-7.2-8-7.2-3.2,0-5.9,1.8-7.2,4.3-.9-.8-2-1.3-3.3-1.3-2.6,0-4.6,1.9-4.9,4.3-.7-.2-1.3-.3-2.1-.3-4.5,0-8.1,3.5-8.1,7.9s3.6,7.9,8.1,7.9h26.7c4.5,0,8.1-3.5,8.1-7.8"/>
      <path id="Stroke-41" class="cls-6" d="M355.2,28.5c0-4.3-3.6-7.9-8.1-7.9-.4,0-.8,.1-1.2,.1-.3-4-3.8-7.2-8-7.2-3.2,0-5.9,1.8-7.2,4.3-.9-.8-2-1.3-3.3-1.3-2.6,0-4.6,1.9-4.9,4.3-.7-.2-1.3-.3-2.1-.3-4.5,0-8.1,3.5-8.1,7.9s3.6,7.9,8.1,7.9h26.7c4.5,0,8.1-3.5,8.1-7.8Z"/>
    </g>
    <line id="Stroke-44" class="cls-6" x1="327.1" y1="36.8" x2="324.7" y2="40.2"/>
    <line id="Stroke-45" class="cls-6" x1="334.7" y1="36.8" x2="332.3" y2="40.2"/>
    <line id="Stroke-46" class="cls-6" x1="342.6" y1="36.8" x2="340.2" y2="40.2"/>
    <line id="Stroke-47" class="cls-6" x1="322.8" y1="42.5" x2="320.4" y2="45.9"/>
    <line id="Stroke-48" class="cls-6" x1="330.4" y1="42.5" x2="328" y2="45.9"/>
    <line id="Stroke-49" class="cls-6" x1="338.3" y1="42.5" x2="335.9" y2="45.9"/>
    <line id="Stroke-50" class="cls-6" x1="334" y1="48.2" x2="331.6" y2="51.6"/>
    <g id="Group-77">
      <path id="Fill-51" class="cls-22" d="M263.2,87.4c-6.8,.3-10.7,.3-13.6-1.2-2.2-1.1-3.5-3.1-2.7-5,.8-1.8,3.4-2.6,5.7-1.6,3.6,1.4,3.9,3.7,10.6,7.8"/>
      <path id="Stroke-53" class="cls-6" d="M263.2,87.4c-6.8,.3-10.7,.3-13.6-1.2-2.2-1.1-3.5-3.1-2.7-5,.8-1.8,3.4-2.6,5.7-1.6,3.6,1.4,3.9,3.7,10.6,7.8Z"/>
      <path id="Fill-55" class="cls-22" d="M302.5,87.4c6.8,.3,10.7,.3,13.6-1.2,2.2-1.1,3.5-3.1,2.7-5-.8-1.8-3.4-2.6-5.7-1.6-3.6,1.4-3.9,3.7-10.6,7.8"/>
      <path id="Stroke-57" class="cls-6" d="M302.5,87.4c6.8,.3,10.7,.3,13.6-1.2,2.2-1.1,3.5-3.1,2.7-5-.8-1.8-3.4-2.6-5.7-1.6-3.6,1.4-3.9,3.7-10.6,7.8Z"/>
      <path id="Fill-59" class="cls-22" d="M312.8,74.4c2-.7,6.4-1.3,8.2-2.5,1.3-.9,1.7-2.6,.8-3.8-.9-1.2-2.7-1.5-4.1-.6-2.1,1.4-3.2,4.9-4.9,6.9"/>
      <path id="Stroke-61" class="cls-6" d="M312.8,74.4c2-.7,6.4-1.3,8.2-2.5,1.3-.9,1.7-2.6,.8-3.8-.9-1.2-2.7-1.5-4.1-.6-2.1,1.4-3.2,4.9-4.9,6.9Z"/>
      <path id="Fill-63" class="cls-22" d="M252.9,74.4c-2-.7-6.4-1.3-8.2-2.5-1.3-.9-1.7-2.6-.8-3.8s2.7-1.5,4.1-.6c2.1,1.4,3.1,4.9,4.9,6.9"/>
      <path id="Stroke-65" class="cls-6" d="M252.9,74.4c-2-.7-6.4-1.3-8.2-2.5-1.3-.9-1.7-2.6-.8-3.8s2.7-1.5,4.1-.6c2.1,1.4,3.1,4.9,4.9,6.9Z"/>
      <path id="Fill-67" class="cls-24" d="M274.8,86.6c-9,0-16.2-13.9-16.2-31s7.3-31,16.2-31h19.1c9,0,16.2,13.9,16.2,31s-7.3,31-16.2,31h-19.1Z"/>
      <path id="Stroke-69" class="cls-8" d="M295.7,87c-9.1,0-16.1-14-16.1-31.3s6.7-31.3,15.8-31.3"/>
      <path id="Fill-71" class="cls-22" d="M296.2,33.4c-5,0-9,9.6-9,21.5s4,21.5,9,21.5,9-9.6,9-21.5c.1-11.8-4-21.5-9-21.5m-.8,41.9c-4.2,0-7.7-9.1-7.7-20.2s3.4-20.2,7.7-20.2,7.7,9.1,7.7,20.2-3.4,20.2-7.7,20.2"/>
      <path id="Fill-73" class="cls-22" d="M289.8,41.7l-.8,1.4-.9,4.4-.4,4.8-.2,6.4,1.2,7,1.2,3.5c2.8,0,5-5.9,5-13.1-.1-7.3-2.4-14.4-5.1-14.4"/>
      <path id="Stroke-75" class="cls-2" d="M283.9,87.3c-9.2,0-16.5-14.3-16.5-31.6s7.5-31.8,16.7-31.8m-5.1,63.3c-9.2,0-16.5-14.3-16.5-31.6s7.5-31.8,16.7-31.8"/>
    </g>
    <path id="Stroke-78" class="cls-3" d="M267.5,52.2l-4.8-.3m4.7,5.8l-5-.2m5.4,5.3l-4.9-.3m5.4,4.4l-4.7-.2m5.8,4.9l-4.8-.3m6.2,3.5l-4.8-.2m6,3.2l-4.9-.1m6.5,2.7h-4.9m6.4,2.1l-4.8,.1m6.7,1.7l-4.8,.1m-4-38.3l-4.9-.1m5.8-4.4h-4.6m5.9-4l-5,.1m6-3h-4.6m6.1-2.4h-5m11.1,53.6h-4.6m-.2-55.7h-4.9m6.4-1.9h-4.9m6.3-1.5l-4.8-.1m6.8-1.4h-5"/>
    <path id="Stroke-79" class="cls-3" d="M291.7,87.5c-8.9,0-15.9-14.3-15.9-31.6s7.2-31.8,16-31.8m-4.9,63.2c-8.9,0-15.9-14.3-15.9-31.6s7.2-31.8,16-31.8"/>
    <path id="Stroke-81" class="cls-9" d="M275.9,52.4l-4.6-.3m4.5,5.8l-4.8-.2m5.1,5.3l-4.7-.3m5.3,4.4l-4.5-.2m5.5,4.9l-4.6-.3m5.9,3.4l-4.6-.2m5.9,3.3l-4.7-.2m6.1,2.7h-4.7m6.2,2.2l-4.6,.1m6.4,1.7l-4.6,.1m-3.8-38.4l-4.7-.1m5.5-4.3h-4.5m5.8-4l-4.8,.1m5.7-3h-4.4m5.9-2.5h-4.8m10.5,53.6l-4.3,.2m-.2-55.8h-4.7m6.1-1.9h-4.7m6.1-1.5l-4.6-.1m6.5-1.4h-4.8"/>
  </g>
  <g id="Energy-class-2" data-name="Energy-class">
    <g id="E-2" data-name="E">
      <path id="Arrow-E-2" data-name="Arrow-E" class="cls-17" d="M296.1,278.3l18.1,18.1-18.1,18.1h-90.2v-36.3h90.2v.1Z"/>
      <text class="cls-20" transform="translate(214 306.4)"><tspan x="0" y="0">E</tspan></text>
      <text class="cls-4" transform="translate(214 306.4)"><tspan x="0" y="0">E</tspan></text>
    </g>
    <g id="D-2" data-name="D">
      <path id="Arrow-D-2" data-name="Arrow-D" class="cls-19" d="M286.1,234.3l18.1,18.1-18.1,18.1h-80.2v-36.3h80.2v.1Z"/>
      <text class="cls-20" transform="translate(214 262.4)"><tspan x="0" y="0">D</tspan></text>
      <text class="cls-4" transform="translate(214 262.4)"><tspan x="0" y="0">D</tspan></text>
    </g>
    <g id="C-2" data-name="C">
      <path id="Arrow-C-2" data-name="Arrow-C" class="cls-18" d="M274.1,188.3l18.1,18.1-18.1,18.1h-68.2v-36.3h68.2v.1Z"/>
      <text class="cls-20" transform="translate(214 216.4)"><tspan x="0" y="0">C</tspan></text>
      <text class="cls-4" transform="translate(214 216.4)"><tspan x="0" y="0">C</tspan></text>
    </g>
    <g id="B-2" data-name="B">
      <path id="Arrow-B-2" data-name="Arrow-B" class="cls-15" d="M262.1,142.3l18.1,18.1-18.1,18.1h-56.2v-36.3h56.2v.1Z"/>
      <text class="cls-20" transform="translate(214 170.4)"><tspan x="0" y="0">B</tspan></text>
      <text class="cls-4" transform="translate(214 170.4)"><tspan x="0" y="0">B</tspan></text>
    </g>
    <g id="A-2" data-name="A">
      <path id="Arrow-A-2" data-name="Arrow-A" class="cls-14" d="M205.9,98.3h44.2l18.1,18.1-18.1,18.2h-44.2v-36.3h0Z"/>
      <text class="cls-21" transform="translate(214 124.4)"><tspan x="0" y="0">A</tspan></text>
      <text class="cls-7" transform="translate(214 124.4)"><tspan x="0" y="0">A</tspan></text>
    </g>
  </g>
</svg>