<?xml version="1.0" encoding="UTF-8"?>
<svg id="Layer_1" data-name="Layer 1" xmlns="http://www.w3.org/2000/svg" viewBox="0 0 140 104">
  <defs>
    <style>
      .cls-1 {
        stroke-width: .64px;
      }

      .cls-1, .cls-2, .cls-3, .cls-4, .cls-5, .cls-6 {
        fill: none;
      }

      .cls-1, .cls-2, .cls-3, .cls-5, .cls-6 {
        stroke: #fefefe;
        stroke-miterlimit: 8;
      }

      .cls-2 {
        stroke-width: .66px;
      }

      .cls-3 {
        stroke-width: .67px;
      }

      .cls-7 {
        font-family: Verdana, Verdana;
        font-size: 16px;
        isolation: isolate;
      }

      .cls-7, .cls-8 {
        fill: #231f20;
      }

      .cls-4 {
        stroke: #231f20;
        stroke-linecap: round;
        stroke-linejoin: round;
        stroke-width: 1.6px;
      }

      .cls-5 {
        stroke-width: .66px;
      }

      .cls-6 {
        stroke-width: .66px;
      }

      .cls-8, .cls-9 {
        fill-rule: evenodd;
      }

      .cls-9 {
        fill: #fefefe;
      }
    </style>
  </defs>
  <g id="Group-18">
    <g id="Group-3">
      <path id="Fill-1" class="cls-8" d="M17.65,102.34c-9,0-16.3-14-16.3-31.3s7.3-31.3,16.3-31.3h19.1c9,0,16.3,14,16.3,31.3s-7.3,31.3-16.3,31.3H17.65Z"/>
    </g>
    <path id="Stroke-4" class="cls-2" d="M38.55,102.74c-9.1,0-16.2-14.1-16.2-31.5s6.7-31.6,15.8-31.6"/>
    <path id="Fill-6" class="cls-9" d="M38.35,90.84c-4.3,0-7.7-9.1-7.7-20.4s3.5-20.4,7.7-20.4,7.7,9.1,7.7,20.4-3.5,20.4-7.7,20.4m.8-42.1c-5,0-9.1,9.7-9.1,21.6s4.1,21.6,9.1,21.6,9.1-9.7,9.1-21.6c-.1-11.9-4.1-21.6-9.1-21.6"/>
    <path id="Fill-8" class="cls-9" d="M32.65,57.14l-.8,1.4-.9,4.4-.4,4.8-.2,6.4,1.2,7,1.2,3.6c2.8,0,5-5.9,5-13.2s-2.4-14.4-5.1-14.4"/>
    <path id="Stroke-10" class="cls-3" d="M21.75,102.84c-9.3,0-16.6-14.4-16.6-31.8s7.5-32.1,16.8-32.1m4.8,64.1c-9.3,0-16.6-14.4-16.6-31.8s7.5-32.1,16.8-32.1"/>
    <path id="Stroke-12" class="cls-6" d="M21.95,40.54h-5m2.9,1.5l-4.8-.1m3.4,1.6h-4.9m3.4,2h-4.9m9.6,55.9l-4.5,.2m-1.5-54.1h-5m3.5,2.5h-4.6m3.6,2.9l-5.1,.1m3.8,3.9H7.15m3.8,4.5l-5-.1m13.9,38.7l-4.8,.1m2.9-2l-4.8,.1m3.2-2.2h-4.9m3.4-2.6l-5.1-.4m3.8-2.7l-4.8-.2m3.4-3l-4.8-.3m3.7-4.4l-4.8-.2m4.3-3.9l-4.9-.3m4.5-4.9l-5-.2m5.1-5.3l-4.8-.3"/>
    <path id="Stroke-14" class="cls-5" d="M29.75,103.04c-8.9,0-15.9-14.4-15.9-31.8s7.2-32.1,16.1-32.1m4.6,64c-8.9,0-15.9-14.4-15.9-31.8s7.2-32.1,16.1-32.1"/>
    <path id="Stroke-16" class="cls-1" d="M29.85,40.74h-4.8m2.9,1.5l-4.6-.1m3.2,1.6h-4.7m3.2,1.9h-4.7m9.2,56l-4.3,.2m-1.4-54.1h-4.8m3.4,2.5h-4.5m3.5,2.9l-4.9,.1m3.7,3.9h-4.5m3.6,4.5l-4.8-.1m13.3,38.7l-4.6,.1m2.8-2l-4.6,.1m3.1-2.3h-4.7m3.2-2.5l-4.9-.4m3.6-2.7l-4.6-.2m3.4-3l-4.6-.3m3.5-4.4l-4.6-.2m4.1-3.9l-4.7-.3m4.3-4.9l-4.8-.2m4.9-5.3l-4.6-.3"/>
  </g>
  <g id="Group-24">
    <path id="Fill-20" class="cls-9" d="M108.85,58.04c2.2-5.3,3.4-11,3.4-17.1,0-7.1-1.7-13.8-4.6-19.8l1.2,36.9Zm22.4,8.9c3.3-8,5.2-16.8,5.2-26,0-10.8-2.5-21.1-7.1-30.2l1.9,56.2Zm-11-4.8c2.7-6.6,4.2-13.7,4.2-21.2,0-8.8-2.1-17.2-5.7-24.6l1.5,45.8ZM95.05,2.64V79.14l-29.6-18.3H32.05V21.44h33.4L95.05,2.64Z"/>
    <path id="Stroke-22" class="cls-4" d="M108.85,58.04c2.2-5.3,3.4-11,3.4-17.1,0-7.1-1.7-13.8-4.6-19.8m23.6,45.8c3.3-8,5.2-16.8,5.2-26,0-10.8-2.5-21.1-7.1-30.2m-9.1,51.4c2.7-6.6,4.2-13.7,4.2-21.2,0-8.8-2.1-17.2-5.7-24.6M95.05,2.64V79.14l-29.6-18.3H32.05V21.44h33.4L95.05,2.64Z"/>
  </g>
  <text class="cls-7" transform="translate(68.79 44.8)"><tspan x="0" y="0">dB</tspan></text>
</svg>