<?xml version="1.0" encoding="UTF-8"?>
<svg id="Layer_1" data-name="Layer 1" xmlns="http://www.w3.org/2000/svg" viewBox="0 0 319 63">
  <defs>
    <style>
      .cls-1 {
        fill: #164194;
      }

      .cls-1, .cls-2 {
        fill-rule: evenodd;
      }

      .cls-2 {
        fill: #ffed00;
      }
    </style>
  </defs>
  <g id="EU-Flag">
    <polygon id="Fill-1" class="cls-1" points="0 62.87 90.83 62.87 90.83 0 0 0 0 62.87"/>
    <g id="EU-stars">
      <polygon id="Star-12" class="cls-2" points="35.95 11.99 39.16 11.99 36.55 14.01 37.55 17.13 35.05 15.21 32.55 17.13 33.55 14.01 30.94 11.99 34.15 11.99 35.05 8.97 35.95 11.99"/>
      <polygon id="Star-11" class="cls-2" points="28.74 19.75 31.95 19.75 29.34 21.66 30.34 24.89 27.84 22.87 25.24 24.89 26.24 21.66 23.73 19.75 26.84 19.75 27.84 16.73 28.74 19.75"/>
      <polygon id="Star-10" class="cls-2" points="26.04 30.13 29.24 30.13 26.64 32.04 27.64 35.16 25.14 33.25 22.63 35.16 23.63 32.04 21.03 30.13 24.13 30.13 25.14 27 26.04 30.13"/>
      <polygon id="Star-9" class="cls-2" points="28.74 40.81 31.95 40.81 29.34 42.72 30.34 45.84 27.84 43.93 25.24 45.84 26.24 42.72 23.73 40.81 26.84 40.81 27.84 37.68 28.74 40.81"/>
      <polygon id="Star-8" class="cls-2" points="36.05 48.36 39.26 48.36 36.75 50.38 37.65 53.5 35.15 51.59 32.65 53.5 33.65 50.38 31.04 48.36 34.25 48.36 35.15 45.34 36.05 48.36"/>
      <polygon id="Star-7" class="cls-2" points="46.37 51.08 49.47 51.08 46.97 53.1 47.97 56.22 45.37 54.31 42.86 56.22 43.86 53.1 41.26 51.08 44.46 51.08 45.37 48.06 46.37 51.08"/>
      <polygon id="Star-6" class="cls-2" points="56.38 48.36 59.49 48.36 56.98 50.28 57.98 53.5 55.38 51.49 52.88 53.5 53.88 50.28 51.27 48.36 54.48 48.36 55.38 45.34 56.38 48.36"/>
      <polygon id="Star-5" class="cls-2" points="63.79 40.81 67 40.81 64.39 42.72 65.39 45.84 62.89 43.93 60.29 45.84 61.29 42.72 58.78 40.81 61.89 40.81 62.89 37.68 63.79 40.81"/>
      <polygon id="Star-4" class="cls-2" points="66.6 30.03 69.7 30.03 67.2 32.04 68.2 35.16 65.69 33.25 63.09 35.16 64.09 32.04 61.49 30.03 64.69 30.03 65.69 27 66.6 30.03"/>
      <polygon id="Star-3" class="cls-2" points="63.79 19.75 67 19.75 64.39 21.66 65.39 24.79 62.89 22.87 60.29 24.79 61.29 21.66 58.78 19.75 61.89 19.75 62.89 16.62 63.79 19.75"/>
      <polygon id="Star-2" class="cls-2" points="56.38 11.99 59.49 11.99 56.98 14.01 57.98 17.13 55.38 15.21 52.88 17.13 53.88 14.01 51.27 11.99 54.48 11.99 55.38 8.97 56.38 11.99"/>
      <polygon id="Star-1" class="cls-2" points="46.17 9.27 49.37 9.27 46.87 11.28 47.77 14.51 45.27 12.49 42.76 14.51 43.76 11.28 41.16 9.27 44.36 9.27 45.27 6.05 46.17 9.27"/>
    </g>
  </g>
  <g id="Energy-label">
    <polygon id="Lightning" class="cls-1" points="301.13 10.17 311.03 10.17 307.13 22.67 317.93 20.97 302.43 54.87 307.13 30.27 296.73 30.67 301.13 10.17"/>
    <path id="G" class="cls-1" d="M267.53,29.97h21c.2,1.7,.3,2.9,.4,3.7v5.7c0,3.4-.5,6.4-1.4,9-.6,1.7-1.6,2.9-3,3.9-1.4,.9-3.3,1.6-5.7,1.9-1.3,.1-2.6,.2-4,.3-1.4,0-2.8,.1-4.1,.1-6.9,0-11.6-1.1-14.2-3.3-2.8-2.3-4.2-6.9-4.2-13.6v-2.9c0-.9,0-1.8,.1-2.8v-5.2c0-5.7,1.1-9.8,3.4-12.5,1.2-1.4,2.8-2.4,4.9-3.1,2.1-.7,4.5-1,7.4-1h2.4c.8,0,1.6,0,2.4,.1h4.5c4.2,.1,7.2,1.3,8.9,3.4,1.7,2.2,2.6,5.2,2.6,9.2v3.8h-9c0-3.7-.2-5.9-.7-6.9-.2-.4-1.1-.7-2.7-.8-1.3-.1-2.6-.1-3.9-.2h-4c-3.3,0-5.3,.3-5.9,1-.6,.7-.9,3.2-1,7.2v5l.1,5.5c0,1.1,0,2.2,.1,3.2s.2,1.9,.4,2.7v-.1c.2,.5,.6,.9,1,1.3s1.2,.6,2.1,.7c.9,.1,1.8,.2,2.6,.2,.5,0,1,.1,1.6,.1h3.9c1.5,0,2.7-.1,3.6-.2,.9-.1,1.6-.3,1.9-.7,.6-.5,.9-2.3,.9-5.2v-1h-12.2v-8.5h-.2Z"/>
    <path id="R" class="cls-1" d="M213.23,54.07V10.37h20.7c2.4,0,4.5,.2,6.2,.7s3.1,1.3,4.3,2.3c1.1,1.1,1.9,2.5,2.5,4.2,.5,1.8,.8,3.9,.8,6.4,0,1.4-.1,2.7-.3,4-.2,1.3-.4,2.4-.7,3.4-.4,1.1-1.1,2.1-2.1,2.9,.9,.9,1.5,2,1.9,3.3s.6,2.7,.6,4.2v12.3h-9.2v-11.3c0-1.7-.4-2.8-1.2-3.4-.8-.6-2-.9-3.7-.9h-10.8v15.7h-9v-.1Zm9-24.1h10.1c1.3,0,2.3-.1,3.2-.3,.8-.2,1.4-.4,1.8-.7,.6-.5,1-1.8,1-4,0-2.4-.2-4-.6-4.8-.4-.9-1.7-1.3-3.8-1.3h-11.7v11.1Z"/>
    <polygon id="E" class="cls-1" points="188.13 19.07 188.13 27.47 207.73 27.47 207.73 35.97 188.13 35.97 188.13 45.57 208.63 45.57 208.63 54.07 179.13 54.07 179.13 10.37 208.63 10.37 208.63 19.07 188.13 19.07"/>
    <polygon id="N" class="cls-1" points="174.03 10.37 174.03 54.07 163.33 54.07 145.33 24.97 145.33 54.07 136.43 54.07 136.43 10.37 147.13 10.37 165.13 39.77 165.13 10.37 174.03 10.37"/>
    <polygon id="E-2" data-name="E" class="cls-1" points="111.13 19.07 111.13 27.47 130.73 27.47 130.73 35.97 111.13 35.97 111.13 45.57 131.53 45.57 131.53 54.07 102.13 54.07 102.13 10.37 131.53 10.37 131.53 19.07 111.13 19.07"/>
  </g>
</svg>