<svg version="1.1" id="Layer_1" xmlns="http://www.w3.org/2000/svg" xmlns:xlink="http://www.w3.org/1999/xlink" x="0px" y="0px"
	 width="100%" viewBox="0 0 2502 3582" enable-background="new 0 0 2502 3582" xml:space="preserve">
<path fill="#AED13B" opacity="1.000000" stroke="none" 
	d="
M1806.000000,3584.000000 
	C1476.614990,3584.000000 1147.229980,3584.000000 816.714111,3583.191406 
	C817.356140,3566.189697 819.587891,3550.031494 820.811707,3533.796875 
	C823.851562,3493.472168 818.847717,3454.126465 805.040161,3416.020752 
	C786.698242,3365.400879 754.679565,3324.110840 716.383118,3287.292480 
	C675.400024,3247.891357 629.241089,3215.261719 580.878601,3185.664551 
	C559.898682,3172.824951 538.612671,3160.485840 517.556641,3146.916016 
	C517.706848,3143.250488 517.993469,3140.570557 517.789856,3137.928467 
	C515.953674,3114.097412 514.415649,3090.234131 512.028198,3066.457031 
	C509.573944,3042.013916 507.019409,3017.536621 503.163788,2993.288330 
	C496.581604,2951.892578 487.545898,2910.983887 476.171417,2870.600830 
	C460.519104,2815.030518 440.282379,2761.198486 415.456879,2709.096924 
	C400.839233,2678.418701 384.242310,2648.840088 366.232422,2619.998535 
	C342.909088,2582.648438 316.822479,2547.370850 287.348419,2514.740479 
	C270.872925,2496.500488 252.968323,2479.528076 235.367706,2462.332764 
	C209.583878,2437.142822 180.863754,2415.536865 151.011581,2395.496094 
	C110.847435,2368.532471 68.522820,2345.440674 23.702396,2327.104248 
	C16.675608,2324.229492 9.244293,2322.343262 1.999994,2320.000000 
	C2.000000,2112.614990 2.000000,1905.229980 2.750165,1696.890137 
	C6.012235,1695.103149 8.630246,1694.501831 11.019674,1693.403320 
	C35.315838,1682.233887 58.017830,1668.360596 79.729866,1652.801147 
	C100.716805,1637.761475 119.352417,1619.949341 135.833878,1600.371094 
	C160.184494,1571.445068 179.418900,1538.837280 194.445023,1504.220093 
	C217.250244,1451.681274 238.231659,1398.353882 260.580200,1345.612427 
	C272.790253,1316.797363 285.557526,1288.175293 299.299988,1260.065796 
	C310.986298,1236.162354 324.156219,1212.965088 337.157013,1189.727905 
	C359.307129,1150.137695 384.343811,1112.335449 411.367584,1075.968750 
	C431.992706,1048.212769 453.673828,1021.163086 476.157745,994.888184 
	C500.371185,966.592163 525.883911,939.394714 551.219116,912.079102 
	C559.797119,902.830566 569.546692,894.666321 578.788452,886.036194 
	C598.490417,867.638306 617.896606,848.908203 638.003967,830.963989 
	C662.072632,809.484558 686.433167,788.306458 711.236450,767.682251 
	C743.213745,741.092773 775.343628,714.653381 808.144897,689.095337 
	C865.124023,644.698425 922.575317,600.904724 980.006897,557.091858 
	C1021.567505,525.386536 1063.475342,494.136902 1105.119629,462.540741 
	C1144.370483,432.760651 1183.686279,403.059906 1222.595093,372.836975 
	C1266.484985,338.745026 1310.140991,304.345001 1353.537720,269.627777 
	C1383.147949,245.939774 1412.430420,221.820679 1441.323975,197.264175 
	C1469.200562,173.571945 1496.715576,149.429291 1523.786743,124.821472 
	C1548.907349,101.986786 1573.520264,78.571548 1597.806763,54.848797 
	C1614.233643,38.803055 1629.713501,21.787395 1645.592896,5.182582 
	C1646.505981,4.227670 1647.202637,3.065657 1648.000000,2.000004 
	C1741.385010,2.000000 1834.770020,2.000000 1929.038818,2.740268 
	C1919.466309,34.377037 1915.416748,66.223396 1916.849609,98.683235 
	C1918.334106,132.315414 1923.766235,165.334061 1933.809082,197.577957 
	C1955.457520,267.081787 1990.702759,328.534058 2040.993286,381.362061 
	C2072.337646,414.287872 2107.241455,443.072235 2143.167969,470.687134 
	C2208.113525,520.607300 2273.493408,569.941284 2336.644531,622.185730 
	C2376.906250,655.494080 2418.418213,687.313538 2459.877441,719.139404 
	C2473.778564,729.810364 2489.247559,738.438232 2504.000000,748.000000 
	C2504.000000,1568.718384 2504.000000,2389.436768 2503.173828,3211.072998 
	C2487.792236,3215.421631 2473.186279,3218.654541 2458.689453,3222.317871 
	C2403.133301,3236.358154 2348.626953,3253.736084 2295.019775,3273.977295 
	C2248.290527,3291.621826 2202.397217,3311.204590 2157.616943,3333.329834 
	C2138.224365,3342.911377 2119.025635,3352.909424 2099.998291,3363.198242 
	C2084.202148,3371.740234 2068.388672,3380.365479 2053.284180,3390.048340 
	C2021.082886,3410.691406 1988.818848,3431.310059 1957.569702,3453.342041 
	C1933.145752,3470.562500 1910.040527,3489.682373 1886.683716,3508.375977 
	C1873.202881,3519.165527 1859.942139,3530.314209 1847.386841,3542.154297 
	C1833.122925,3555.606201 1819.756470,3570.010010 1806.000000,3584.000000 
z"/>
<path fill="#CBEE1C" opacity="1.000000" stroke="none" 
	d="
M1647.062744,2.000004 
	C1647.202637,3.065657 1646.505981,4.227670 1645.592896,5.182582 
	C1629.713501,21.787395 1614.233643,38.803055 1597.806763,54.848797 
	C1573.520264,78.571548 1548.907349,101.986786 1523.786743,124.821472 
	C1496.715576,149.429291 1469.200562,173.571945 1441.323975,197.264175 
	C1412.430420,221.820679 1383.147949,245.939774 1353.537720,269.627777 
	C1310.140991,304.345001 1266.484985,338.745026 1222.595093,372.836975 
	C1183.686279,403.059906 1144.370483,432.760651 1105.119629,462.540741 
	C1063.475342,494.136902 1021.567505,525.386536 980.006897,557.091858 
	C922.575317,600.904724 865.124023,644.698425 808.144897,689.095337 
	C775.343628,714.653381 743.213745,741.092773 711.236450,767.682251 
	C686.433167,788.306458 662.072632,809.484558 638.003967,830.963989 
	C617.896606,848.908203 598.490417,867.638306 578.788452,886.036194 
	C569.546692,894.666321 559.797119,902.830566 551.219116,912.079102 
	C525.883911,939.394714 500.371185,966.592163 476.157745,994.888184 
	C453.673828,1021.163086 431.992706,1048.212769 411.367584,1075.968750 
	C384.343811,1112.335449 359.307129,1150.137695 337.157013,1189.727905 
	C324.156219,1212.965088 310.986298,1236.162354 299.299988,1260.065796 
	C285.557526,1288.175293 272.790253,1316.797363 260.580200,1345.612427 
	C238.231659,1398.353882 217.250244,1451.681274 194.445023,1504.220093 
	C179.418900,1538.837280 160.184494,1571.445068 135.833878,1600.371094 
	C119.352417,1619.949341 100.716805,1637.761475 79.729866,1652.801147 
	C58.017830,1668.360596 35.315838,1682.233887 11.019674,1693.403320 
	C8.630246,1694.501831 6.012235,1695.103149 2.750165,1695.967529 
	C2.000000,1452.624878 2.000000,1209.249756 2.598410,964.638794 
	C6.119115,960.719238 9.276426,958.248413 11.928542,955.320007 
	C54.189583,908.658508 96.519936,862.058655 138.568115,815.205627 
	C216.661240,728.188843 293.995850,640.483521 372.719696,554.042480 
	C473.417694,443.473083 575.350098,334.029022 676.417603,223.794739 
	C741.470703,152.841278 805.935791,81.348549 870.602173,10.041083 
	C872.747925,7.674923 874.216003,4.694237 876.000000,2.000001 
	C1132.708496,2.000000 1389.416870,2.000000 1647.062744,2.000004 
z"/>
<path fill="#CBEE1C" opacity="1.000000" stroke="none" 
	d="
M2.000002,954.000000 
	C2.000000,636.816101 2.000000,319.632233 2.000000,2.000000 
	C290.048004,2.000000 578.096252,2.000000 866.939941,2.666467 
	C845.615601,28.205713 823.826721,53.382256 801.319031,77.898933 
	C701.575317,186.545319 601.278870,294.686005 501.848328,403.617554 
	C404.211365,510.584167 307.293091,618.207642 210.222183,725.689819 
	C143.498291,799.570129 77.067993,873.715637 10.416263,947.661255 
	C8.107851,950.222168 4.827383,951.906860 2.000002,954.000000 
z"/>
<path fill="#AED13B" opacity="1.000000" stroke="none" 
	d="
M1938.000000,1.999990 
	C2126.540527,2.000000 2315.081055,2.000000 2504.000000,2.000000 
	C2504.000000,247.376068 2504.000000,492.752350 2503.294922,739.168457 
	C2501.148682,739.384766 2499.666748,738.625000 2498.272949,737.728271 
	C2459.557129,712.823364 2423.036377,684.920654 2387.514404,655.730652 
	C2317.516846,598.210205 2247.246826,541.068542 2174.590820,486.877441 
	C2139.374023,460.610596 2104.819824,433.416473 2072.508057,403.464233 
	C2022.996826,357.568573 1983.207031,304.848846 1956.999268,242.362411 
	C1938.241455,197.638565 1925.162354,151.472748 1923.637085,102.646721 
	C1922.933472,80.122269 1922.194946,57.502781 1928.205078,35.425095 
	C1931.254150,24.224609 1934.721680,13.138048 1938.000000,1.999990 
z"/>
<path fill="#CBEE1C" opacity="1.000000" stroke="none" 
	d="
M447.999969,3584.000000 
	C299.448273,3584.000000 150.896561,3584.000000 2.000000,3584.000000 
	C2.000000,3355.958252 2.000000,3127.916504 2.716914,2898.627441 
	C7.205074,2898.635986 11.048813,2899.709229 14.736687,2901.174561 
	C68.303276,2922.462891 119.535713,2948.675049 170.672562,2975.097656 
	C262.608185,3022.601807 354.638672,3069.922607 446.498749,3117.572021 
	C470.702057,3130.126465 494.426880,3143.603516 518.270386,3157.674316 
	C517.487427,3180.966309 516.481873,3203.237061 516.206238,3225.516602 
	C515.868469,3252.821533 513.750977,3279.972656 510.110992,3306.998291 
	C506.074921,3336.964844 502.540344,3367.045410 497.096558,3396.766602 
	C486.225128,3456.120850 470.707123,3514.340820 451.253937,3571.489990 
	C449.869232,3575.557861 449.070892,3579.825439 447.999969,3584.000000 
z"/>
<path fill="#CBEE1C" opacity="1.000000" stroke="none" 
	d="
M1.999994,2320.937256 
	C9.244293,2322.343262 16.675608,2324.229492 23.702396,2327.104248 
	C68.522820,2345.440674 110.847435,2368.532471 151.011581,2395.496094 
	C180.863754,2415.536865 209.583878,2437.142822 235.367706,2462.332764 
	C252.968323,2479.528076 270.872925,2496.500488 287.348419,2514.740479 
	C316.822479,2547.370850 342.909088,2582.648438 366.232422,2619.998535 
	C384.242310,2648.840088 400.839233,2678.418701 415.456879,2709.096924 
	C440.282379,2761.198486 460.519104,2815.030518 476.171417,2870.600830 
	C487.545898,2910.983887 496.581604,2951.892578 503.163788,2993.288330 
	C507.019409,3017.536621 509.573944,3042.013916 512.028198,3066.457031 
	C514.415649,3090.234131 515.953674,3114.097412 517.789856,3137.928467 
	C517.993469,3140.570557 517.706848,3143.250488 516.820068,3146.757812 
	C483.626007,3130.470947 451.383575,3113.100098 418.868164,3096.255859 
	C338.746887,3054.750244 258.653015,3013.186768 178.243835,2972.244141 
	C133.753235,2949.590088 88.777756,2927.872803 43.745960,2906.307373 
	C30.309036,2899.872559 15.941309,2895.381348 2.000010,2890.000000 
	C2.000000,2700.624756 2.000000,2511.249756 1.999994,2320.937256 
z"/>
<path fill="#CBEE1C" opacity="1.000000" stroke="none" 
	d="
M1806.937256,3584.000000 
	C1819.756470,3570.010010 1833.122925,3555.606201 1847.386841,3542.154297 
	C1859.942139,3530.314209 1873.202881,3519.165527 1886.683716,3508.375977 
	C1910.040527,3489.682373 1933.145752,3470.562500 1957.569702,3453.342041 
	C1988.818848,3431.310059 2021.082886,3410.691406 2053.284180,3390.048340 
	C2068.388672,3380.365479 2084.202148,3371.740234 2099.998291,3363.198242 
	C2119.025635,3352.909424 2138.224365,3342.911377 2157.616943,3333.329834 
	C2202.397217,3311.204590 2248.290527,3291.621826 2295.019775,3273.977295 
	C2348.626953,3253.736084 2403.133301,3236.358154 2458.689453,3222.317871 
	C2473.186279,3218.654541 2487.792236,3215.421631 2503.173828,3211.995605 
	C2504.000000,3335.898438 2504.000000,3459.797119 2504.000000,3584.000000 
	C2271.958252,3584.000000 2039.916504,3584.000000 1806.937256,3584.000000 
z"/>
<path fill="#AED13B" opacity="1.000000" stroke="none" 
	d="
M448.937286,3584.000000 
	C449.070892,3579.825439 449.869232,3575.557861 451.253937,3571.489990 
	C470.707123,3514.340820 486.225128,3456.120850 497.096558,3396.766602 
	C502.540344,3367.045410 506.074921,3336.964844 510.110992,3306.998291 
	C513.750977,3279.972656 515.868469,3252.821533 516.206238,3225.516602 
	C516.481873,3203.237061 517.487427,3180.966309 518.970337,3157.925781 
	C569.525085,3184.965820 617.997559,3214.762695 663.121399,3249.731201 
	C696.407715,3275.526123 727.052795,3304.045166 753.252136,3337.172363 
	C811.348267,3410.630615 826.229126,3493.633301 808.000000,3584.000000 
	C688.624878,3584.000000 569.249756,3584.000000 448.937286,3584.000000 
z"/>
<path fill="#F8FCE6" opacity="1.000000" stroke="none" 
	d="
M2.000002,954.833313 
	C4.827383,951.906860 8.107851,950.222168 10.416263,947.661255 
	C77.067993,873.715637 143.498291,799.570129 210.222183,725.689819 
	C307.293091,618.207642 404.211365,510.584167 501.848328,403.617554 
	C601.278870,294.686005 701.575317,186.545319 801.319031,77.898933 
	C823.826721,53.382256 845.615601,28.205713 867.867676,2.666467 
	C870.133362,2.000000 872.266663,2.000000 875.200012,2.000001 
	C874.216003,4.694237 872.747925,7.674923 870.602173,10.041083 
	C805.935791,81.348549 741.470703,152.841278 676.417603,223.794739 
	C575.350098,334.029022 473.417694,443.473083 372.719696,554.042480 
	C293.995850,640.483521 216.661240,728.188843 138.568115,815.205627 
	C96.519936,862.058655 54.189583,908.658508 11.928542,955.320007 
	C9.276426,958.248413 6.119115,960.719238 2.598410,963.701477 
	C2.000000,961.222229 2.000000,958.444397 2.000002,954.833313 
z"/>
<path fill="#F8FCE6" opacity="1.000000" stroke="none" 
	d="
M808.799988,3584.000000 
	C826.229126,3493.633301 811.348267,3410.630615 753.252136,3337.172363 
	C727.052795,3304.045166 696.407715,3275.526123 663.121399,3249.731201 
	C617.997559,3214.762695 569.525085,3184.965820 519.071411,3156.908447 
	C494.426880,3143.603516 470.702057,3130.126465 446.498749,3117.572021 
	C354.638672,3069.922607 262.608185,3022.601807 170.672562,2975.097656 
	C119.535713,2948.675049 68.303276,2922.462891 14.736687,2901.174561 
	C11.048813,2899.709229 7.205074,2898.635986 2.716914,2897.689941 
	C2.000000,2895.866699 2.000000,2893.733154 2.000010,2890.799805 
	C15.941309,2895.381348 30.309036,2899.872559 43.745960,2906.307373 
	C88.777756,2927.872803 133.753235,2949.590088 178.243835,2972.244141 
	C258.653015,3013.186768 338.746887,3054.750244 418.868164,3096.255859 
	C451.383575,3113.100098 483.626007,3130.470947 516.729126,3147.760986 
	C538.612671,3160.485840 559.898682,3172.824951 580.878601,3185.664551 
	C629.241089,3215.261719 675.400024,3247.891357 716.383118,3287.292480 
	C754.679565,3324.110840 786.698242,3365.400879 805.040161,3416.020752 
	C818.847717,3454.126465 823.851562,3493.472168 820.811707,3533.796875 
	C819.587891,3550.031494 817.356140,3566.189697 815.791565,3583.191406 
	C813.866638,3584.000000 811.733337,3584.000000 808.799988,3584.000000 
z"/>
<path fill="#F8FCE6" opacity="1.000000" stroke="none" 
	d="
M1937.199951,1.999990 
	C1934.721680,13.138048 1931.254150,24.224609 1928.205078,35.425095 
	C1922.194946,57.502781 1922.933472,80.122269 1923.637085,102.646721 
	C1925.162354,151.472748 1938.241455,197.638565 1956.999268,242.362411 
	C1983.207031,304.848846 2022.996826,357.568573 2072.508057,403.464233 
	C2104.819824,433.416473 2139.374023,460.610596 2174.590820,486.877441 
	C2247.246826,541.068542 2317.516846,598.210205 2387.514404,655.730652 
	C2423.036377,684.920654 2459.557129,712.823364 2498.272949,737.728271 
	C2499.666748,738.625000 2501.148682,739.384766 2503.294922,740.104126 
	C2504.000000,742.133362 2504.000000,744.266663 2504.000000,747.200012 
	C2489.247559,738.438232 2473.778564,729.810364 2459.877441,719.139404 
	C2418.418213,687.313538 2376.906250,655.494080 2336.644531,622.185730 
	C2273.493408,569.941284 2208.113525,520.607300 2143.167969,470.687134 
	C2107.241455,443.072235 2072.337646,414.287872 2040.993286,381.362061 
	C1990.702759,328.534058 1955.457520,267.081787 1933.809082,197.577957 
	C1923.766235,165.334061 1918.334106,132.315414 1916.849609,98.683235 
	C1915.416748,66.223396 1919.466309,34.377037 1929.961304,2.740268 
	C1932.133423,2.000000 1934.266724,2.000000 1937.199951,1.999990 
z"/>
</svg>