<svg id="logo-monroe" xmlns="http://www.w3.org/2000/svg" width="63.296" height="10" viewBox="0 0 63.296 10">
  <g id="Group_1866" data-name="Group 1866">
    <path id="Path_1411" data-name="Path 1411" d="M564.358,368.734a.517.517,0,1,0-.525-.518A.517.517,0,0,0,564.358,368.734Zm-.421-.518a.42.42,0,1,1,.421.432A.418.418,0,0,1,563.936,368.215Zm.311.041h.1l.157.258h.1l-.169-.262a.154.154,0,0,0,.154-.164c0-.118-.069-.17-.211-.17h-.227v.6h.09Zm0-.076V368h.123c.063,0,.129.013.129.087,0,.091-.067.1-.145.1Z" transform="translate(-504.764 -359.03)" fill="#1a1818" fill-rule="evenodd"/>
    <g id="Group_1865" data-name="Group 1865" transform="translate(0)">
      <path id="Path_1412" data-name="Path 1412" d="M87.336,295.88h-2.02l2.765-9.525,1.975,4.7,1.952-4.724,2.776,9.548h-2.02l-1.116-3.955-1.591,4.215-1.648-4.215Z" transform="translate(-77.237 -286.332)" fill="#1a1818" fill-rule="evenodd"/>
      <path id="Path_1413" data-name="Path 1413" d="M259.148,296.072H257.2v-9.525l3.892,4.509v-4.237h1.975v9.706l-3.916-4.621Z" transform="translate(-230.803 -286.525)" fill="#1a1818" fill-rule="evenodd"/>
      <path id="Path_1414" data-name="Path 1414" d="M475.054,298.335l-6.241.011v-9.254h3.656l.5,1.808h-2.245v1.729h2.73l.542,1.92h-3.272v1.91h3.813Z" transform="translate(-419.871 -288.799)" fill="#1a1818" fill-rule="evenodd"/>
      <path id="Path_1415" data-name="Path 1415" d="M518.088,289.2H507.9l.588,2.023h8.518Z" transform="translate(-454.792 -288.892)" fill="#1a1818" fill-rule="evenodd"/>
      <path id="Path_1416" data-name="Path 1416" d="M514.247,311.36h8.227l-1.141,2.1h-6.487Z" transform="translate(-460.463 -308.694)" fill="#1a1818" fill-rule="evenodd"/>
      <path id="Path_1417" data-name="Path 1417" d="M527.006,334.265h-6.182l.586,2.079h4.457Z" transform="translate(-466.338 -329.158)" fill="#1a1818" fill-rule="evenodd"/>
      <path id="Path_1418" data-name="Path 1418" d="M531.436,357.279h-4.164l.576,2h2.482Z" transform="translate(-472.1 -349.719)" fill="#1a1818" fill-rule="evenodd"/>
      <path id="Path_1419" data-name="Path 1419" d="M9.5,288.881H19.685L19.1,290.9H10.579Z" transform="translate(-9.496 -288.609)" fill="#1a1818" fill-rule="evenodd"/>
      <path id="Path_1420" data-name="Path 1420" d="M29.8,311.039H21.569l1.14,2.1H29.2Z" transform="translate(-20.283 -308.406)" fill="#1a1818" fill-rule="evenodd"/>
      <path id="Path_1421" data-name="Path 1421" d="M34.174,333.951h6.183l-.586,2.079H35.313Z" transform="translate(-31.544 -328.877)" fill="#1a1818" fill-rule="evenodd"/>
      <path id="Path_1422" data-name="Path 1422" d="M46.665,356.953h4.164l-.576,2H47.771Z" transform="translate(-42.704 -349.428)" fill="#1a1818" fill-rule="evenodd"/>
      <path id="Path_1423" data-name="Path 1423" d="M166.113,292.04a4.758,4.758,0,1,1,4.756,4.859A4.809,4.809,0,0,1,166.113,292.04Zm1.975,0a2.78,2.78,0,1,1,2.775,2.938A2.861,2.861,0,0,1,168.088,292.04Z" transform="translate(-149.425 -287.091)" fill="#1a1818" fill-rule="evenodd"/>
      <path id="Path_1424" data-name="Path 1424" d="M319.51,294.336v4.011h-1.85v-9.254h3.656a3.152,3.152,0,0,1,1.975.814,2.866,2.866,0,0,1,.757,2.09,3.156,3.156,0,0,1-.565,1.808,2.713,2.713,0,0,1-1.355.96l2.27,3.582h-2.225Zm.012-.96v-2.554h1.489a1.189,1.189,0,0,1,1.074,1.288,1.3,1.3,0,0,1-1.074,1.266Z" transform="translate(-284.823 -288.799)" fill="#1a1818" fill-rule="evenodd"/>
      <path id="Path_1425" data-name="Path 1425" d="M377.827,292.145A4.759,4.759,0,1,1,382.586,297,4.811,4.811,0,0,1,377.827,292.145Zm1.978,0a2.781,2.781,0,1,1,2.775,2.938A2.861,2.861,0,0,1,379.8,292.145Z" transform="translate(-338.579 -287.184)" fill="#1a1818" fill-rule="evenodd"/>
    </g>
  </g>
</svg>
