<svg xmlns="http://www.w3.org/2000/svg" xmlns:xlink="http://www.w3.org/1999/xlink" width="275.711" height="168.318" viewBox="0 0 275.711 168.318">
  <defs>
    <filter id="Path_1" x="0" y="0" width="275.711" height="168.318" filterUnits="userSpaceOnUse">
      <feOffset dy="3" input="SourceAlpha"/>
      <feGaussianBlur stdDeviation="3" result="blur"/>
      <feFlood flood-opacity="0.161"/>
      <feComposite operator="in" in2="blur"/>
      <feComposite in="SourceGraphic"/>
    </filter>
  </defs>
  <g id="logo_aurgi" data-name="logo aurgi" transform="translate(9 6)">
    <g transform="matrix(1, 0, 0, 1, -9, -6)" filter="url(#Path_1)">
      <path id="Path_1-2" data-name="Path 1" d="M94.574,107.7c12.263-19.641,19.022-26,28.924-30.939,13.288-6.622,18.541.281,19.432,3.518,1.873,6.81,1.837,12.656-.756,21.514-1.356,4.637-3.826,12.783-3.826,12.783s13.488-7.167,17.971.746c3.231-5,15.03-4.2,16.258,1.5,4.775-5.076,14.776-7.7,19.259-.644,8.771-7.485,20.659-5.793,26.054,1.769,4.762-1.916,28.712-14.961,40.748,5.491a39.455,39.455,0,0,1,5.077-2.99s-3.372-21.391,16.162-22c7.27-.226,11.37,8.933,11,14.007-.458,6.374-5.24,11.055-5.24,11.055s1.538,4.512,1.273,6.028c-2.757,5.669-15.222,31.789-21.334,39.543-5.372,6.816-19.77.561-20.339-6.031l-2.33,6.326s-5.272,21.116-38.372,50.288c-3.387,2.984-20.554,11.534-24.233-6.556,0,0,.12-7.416,7.21-20.428,2.948-5.408,12.712-19.412,20.947-26.717-1.359-.863-5.071-1.518-10.483-10.732-3.482,4.29-7.1,9.9-11.1,12.887s-8.524,4.739-16.829-.307c-4.609,2.688-15.045,6.613-22.247-1.677-4.747,4.446-15.659,7.994-23.774-.737-3.951,4.162-6.957,8.42-16.446,7.7a22.646,22.646,0,0,1-15.239-7.474s-4.2,7.14-12.5,9.057C72.359,176.4,64.351,178.8,46.9,166.66c-3.487-2.424-8.138-8.711-11.559-13.581-8.091-21.672,8.236-35.109,22.266-30.726-3.921-6.86-2.093-11.481,1.646-15.631,3.263-3.624,10.79-4.6,18.688-4.168,5.32.287,14.816,4.758,16.632,5.145" transform="translate(-24.19 -67.99)" fill="#fff"/>
    </g>
    <path id="Path_2" data-name="Path 2" d="M752.166,168.449s1.845-4.929,6.2-4.191,2.9,5.772,2.424,6.722-2.664,4.612-5.827,5.14-4-1.026-3.952-2.582a29.388,29.388,0,0,1,1.159-5.088" transform="translate(-512.451 -134.208)" fill="#1b4f89"/>
    <path id="Path_3" data-name="Path 3" d="M117.213,132.6c2.344-2.4,10.173-13.048,14.436-19.218,3.389-4.906,11.715-12.268,17.811-12.725,1.414-.105,4.653.548,5.061,3.382.281,1.958.937,4.271-1.313,10.767-1.87,5.4-9.186,24.736-10.968,30.341S129.962,178.6,129.962,178.6s-.656,3.114-3.376,3.648-8.154.714-7.218-2.847,11.156-31.142,11.156-31.142c.75-1.958-.139-2.03-1.829-2.492-4.547-1.246-5.859-.889-5.859-.889S111.872,161.518,107,169.436c-4.294,6.976-11.061,12.012-14.248,12.724s-9.563,2.4-19.216-4.627-12-14.948-12-14.948-1.677-6.393,1.312-8.809a11.238,11.238,0,0,1,8.718-2.936c2.391.175,2.547,1.484,2.829,3.353s-3.021,3.6-3.537,6.19c-.525,2.63,4.914,10.511,14.3,13.324,1.779.536,4.03.979,6-.977a86.5,86.5,0,0,0,9.093-10.945c2.437-3.737,11.343-19.13,11.343-19.13s1.342-1.691.525-1.885c-1.269-.3-6.2-2.534-8.732-3.7-2.515-1.161-9.892-5.6-12.451-3.492a1.66,1.66,0,0,0,.321,2.43c.473.259,1.758,1.214,4.077,2.656,1.354.842-.185,2.292-.56,2.559a6.4,6.4,0,0,1-3.918.227c-2.209-.672-6.3-2.027-8.193-5.644-2.008-3.829.9-5.406,2.5-6.385s6.466-2.334,14.435-.821c5.758,1.093,15.749,4,17.622,4" transform="translate(-51.802 -91.785)" fill="#1b4f89"/>
    <path id="Path_4" data-name="Path 4" d="M260.064,150.616s-2.165,2.05.188,2.581c1.931.435,7.311,1.423,7.311,1.423s7.735-15.437,11.389-28.74c.332-1.2-.8-1.2-1.686-.133-3.28,3.915-17.2,24.87-17.2,24.87" transform="translate(-184.059 -108.022)" fill="#fff"/>
    <path id="Path_5" data-name="Path 5" d="M333.626,207.392c-2.184,2.48-14.659,17.431-11.5,36.374.476,2.851,3.221,6.832,8.1,5.563s8.241-4.674,14.779-14.826l3.744-5.037s.654-.531.611.534c-.143,3.453-3.044,14.528-1.49,18.261.354.846,1.057,3.242,5.051,3.312s7.618-2.114,10.31-8.967c.723-1.845.759-4.945.211-4.937-1.612.022-3.122,2.235-4.179,2.729s-3.5,1.288-3.033-1.6a53.22,53.22,0,0,1,2.725-9.769,93.311,93.311,0,0,0,3.452-14.585c.368-3.078.135-6.569-3.811-6.639-3.71-.066-5.394,2.975-6.592,4.807s-11.5,19.128-15.782,23.649c-1.269,1.339-3.045,2.26-3.523.7-.281-.915-1.392-3.875,2.386-12.92,2.519-6.028,3.64-7.136,5.266-10.3,1.449-2.824,5.763-8.127,2.214-9.162a7.783,7.783,0,0,0-8.945,2.811" transform="translate(-225.765 -160.898)" fill="#1b4f89"/>
    <path id="Path_6" data-name="Path 6" d="M456.514,223.409c1.08-1.533,4.021-1.948,7.444-3.066,2.562-.835,4.4-.89,5.364-.435,2.211,1.044,3.881,3.957,4.325,6.174,0,0,6.269-4.239,12.872-5.158a23.631,23.631,0,0,1,10.547.735c1.126.409,1.672,3.047,1.672,3.047a33.073,33.073,0,0,1,22.554-6.939c8.748.491,11.754,4.917,12.05,7.356s.954,3.653-5.926,8.969c-1.915,1.48-6.293.433-6.518-1.192-.6-4.283,4.277-1.9,4.2-5.56-.068-3.324-4.507-3.4-7.282-2.438s-13.317,3.933-18.371,15.3c-.59,1.329-1.814,7.134,2.513,7.356s11.672,1.279,11.672,1.279c3.345.811,3.67,1.346,3.67,1.346,1.921-1.666,23-22.505,35.077-30.2.927-.591,3.642-2.827,6.731-.813,1.7,1.107,1.108,4.359,1.108,4.359s-11.465,25.391-18.594,34.9a3.13,3.13,0,0,1-3.955,1.109c-2.587-1.183-2.954-2.587-2.659-4.844s6.32-14.916,6.32-16.483c0-.3-.714-.284-.934-.063s-21.621,19.815-22.5,21.328-5.124,17.033-13.373,27.477-17.859,20.479-26.843,25.721c-1.171.682-7.222,1.8-6.051-5.321s7.857-16.008,10.152-19.034c4.588-5.661,15.666-19.034,26.5-29.381,0,0,.673-1.054-1.806-2.294-.585-.292-4.246,0-5.368.048a11.884,11.884,0,0,1-6.639-1.268c-2.587-1.513-5.661-4.246-5.661-8.346s-1.122-6.882,4.735-17.082a22.4,22.4,0,0,1,2.12-2.88s-4.87.675-6.775,1.018-12.379,3.571-16.139,9.916-6.049,15.617-7.464,18.155-2.935,4.7-6.445,3.758c-2.537-.683-1.414-5.66-1.414-5.66.2-3.124,6.345-18.5,6.541-19.865s.845-4.981.547-5.982a2.7,2.7,0,0,0-3.547-1.614c-1.073.634-3.894,2.6-4.614,1.643-.287-.38-.9-3.569.159-5.073" transform="translate(-315.429 -169.947)" fill="#1b4f89"/>
    <path id="Path_7" data-name="Path 7" d="M552.844,372.527c-2.425,9.733-22.551,31.326-29.926,36.75,6.292-12.582,21.465-28.181,29.926-36.75" transform="translate(-360.165 -273.312)" fill="#fff"/>
  </g>
</svg>
