<svg width="332" height="130" viewBox="0 0 332 130" fill="none" xmlns="http://www.w3.org/2000/svg">
<g clip-path="url(#clip0_3_90)">
<path d="M76.1781 1.52941C58.2137 -4.07844 39.5671 5.86274 31.8356 24.7255L2.27398 103.49C-4.77534 122.098 4.09316 133.569 21.6027 128.98L230.353 73.4118C247.863 68.8235 248.09 60.1569 230.808 54.2941L76.1781 1.52941Z" fill="#D80013"/>
<path d="M108.923 48.9412C107.104 48.9412 106.649 50.2157 105.967 55.0588L105.74 56.5882C105.512 57.8627 105.285 59.3921 105.285 60.6666C105.285 62.1961 105.74 62.7059 106.877 62.7059C108.696 62.7059 109.151 61.6863 109.833 56.5882L110.06 55.0588C110.288 53.7843 110.515 52.2549 110.515 50.9804C110.515 49.451 110.06 48.9412 108.923 48.9412ZM121.43 55.8235L121.203 57.3529C119.384 69.8431 112.789 71.3725 105.512 71.3725C99.1452 71.3725 93.9151 68.8235 93.9151 59.9019C93.9151 58.3725 94.1425 57.098 94.1425 55.5686L94.3699 54.0392C96.189 41.549 102.784 40.0196 110.06 40.0196C116.655 40.0196 121.658 42.5686 121.658 51.4902C121.658 53.0196 121.658 54.549 121.43 55.8235ZM148.945 49.1961H141.896L138.485 70.8627H126.66L130.071 49.1961H122.567V41.0392H151.447L148.945 49.1961ZM163.499 48.9412C161.679 48.9412 161.225 50.2157 160.542 55.0588L160.315 56.5882C160.088 57.8627 159.86 59.3921 159.86 60.6666C159.86 62.1961 160.315 62.7059 161.452 62.7059C163.271 62.7059 163.726 61.6863 164.408 56.5882L164.636 55.0588C164.863 53.7843 165.09 52.2549 165.09 50.9804C165.09 49.451 164.636 48.9412 163.499 48.9412ZM176.005 55.8235L175.778 57.3529C173.959 69.8431 167.364 71.3725 160.088 71.3725C153.721 71.3725 148.49 68.8235 148.49 59.9019C148.49 58.3725 148.718 57.098 148.718 55.5686L148.945 54.0392C150.764 41.549 157.359 40.0196 164.636 40.0196C171.23 40.0196 176.233 42.5686 176.233 51.4902C176.233 53.0196 176.233 54.549 176.005 55.8235Z" fill="#F4F2F2"/>
<path d="M231.718 49.1961H225.351L221.94 70.8627H210.115L213.526 49.1961H206.477L206.022 41.0392H234.901L231.718 49.1961ZM246.726 48.9412C244.907 48.9412 244.452 50.2157 243.77 55.0588L243.542 56.5882C243.315 57.8627 243.088 59.3921 243.088 60.6666C243.088 62.1961 243.542 62.7059 244.679 62.7059C246.499 62.7059 246.953 61.6863 247.636 56.5882L247.863 55.0588C248.09 53.7843 248.318 52.2549 248.318 50.9804C248.318 49.451 247.863 48.9412 246.726 48.9412ZM259.233 55.8235L259.005 57.3529C257.186 69.8431 250.592 71.3725 243.315 71.3725C236.948 71.3725 231.718 68.8235 231.718 59.9019C231.718 58.3725 231.945 57.098 231.945 55.5686L232.173 54.0392C233.992 41.549 240.814 40.0196 247.863 40.0196C254.458 40.0196 259.46 42.5686 259.46 51.4902C259.46 53.0196 259.46 54.549 259.233 55.8235Z" fill="#12151A"/>
<path d="M84.5918 41.0392L78.6794 48.1765C77.9972 49.1961 77.0877 50.2157 76.4055 51.2353C76.1781 50.2157 75.7233 49.1961 75.2685 48.1765L71.8575 41.0392H60.0329L61.1699 47.1569L57.5315 70.6078H68.674L70.0383 61.4314C70.2657 60.1569 70.4931 58.6274 70.4931 57.3529C70.7205 58.3725 70.9479 59.3922 71.4027 60.1569L72.7671 62.7059H76.4055L78.6794 60.1569C79.3616 59.3922 80.0438 58.3725 80.726 57.3529C80.4986 58.6274 80.0438 60.1569 80.0438 61.4314L78.6794 70.6078H90.0493L94.8247 40.7843L84.5918 41.0392ZM193.742 51.2353C193.515 52.7647 193.06 53.7843 191.014 53.7843C190.559 53.7843 189.877 53.7843 189.422 53.7843L190.104 48.6863C190.786 48.6863 191.014 48.6863 191.468 48.6863C193.06 48.6863 193.742 49.1961 193.742 50.2157C193.97 50.4706 193.97 50.9804 193.742 51.2353ZM205.112 51.7451C205.34 50.9804 205.34 49.9608 205.34 49.1961C205.34 42.0588 200.11 40.2745 192.605 40.2745C188.512 40.2745 184.419 40.5294 181.236 40.7843L178.279 41.0392L179.416 46.6471L175.551 70.6078H186.693L188.058 61.1765H189.877L192.151 70.6078H203.293L200.11 59.1373C203.066 57.6078 204.658 55.0588 205.112 51.7451Z" fill="#F4F2F2"/>
<path d="M261.279 47.1569L260.597 70.6078H273.104L276.742 61.6863C277.197 60.1569 277.879 58.8823 278.107 57.3529C278.107 58.6274 278.107 60.4118 278.334 61.6863L279.244 70.6078H291.751L300.392 40.7843H289.022L286.521 51.4902C286.066 53.2745 285.611 55.0588 285.384 56.8431C285.384 55.3137 285.156 53.7843 285.156 52.2549L284.701 47.9216H275.151L273.331 52.2549C272.649 53.5294 272.195 55.3137 271.74 56.8431C271.967 55.3137 272.195 53.5294 272.195 51.4902L273.104 40.7843H259.915L261.279 47.1569ZM332 41.0392H319.038L317.674 49.1961C317.447 50.9804 317.219 52.2549 317.219 52.5098C316.992 51.4902 316.537 50.4706 316.082 49.451L311.989 41.0392H301.984L297.436 70.6078H307.896L309.26 62.451C309.488 61.4314 309.488 60.4118 309.715 59.3921C309.942 60.4118 310.397 61.4314 310.625 62.1961L314.49 70.3529H324.951L328.816 46.3921L332 41.0392Z" fill="#12151A"/>
<path d="M108.923 48.9412C107.104 48.9412 106.649 50.2157 105.967 55.0588L105.74 56.5882C105.512 57.8627 105.285 59.3921 105.285 60.6666C105.285 62.1961 105.74 62.7059 106.877 62.7059C108.696 62.7059 109.151 61.6863 109.833 56.5882L110.06 55.0588C110.288 53.7843 110.515 52.2549 110.515 50.9804C110.515 49.451 110.06 48.9412 108.923 48.9412ZM121.43 55.8235L121.203 57.3529C119.384 69.8431 112.789 71.3725 105.512 71.3725C99.1452 71.3725 93.9151 68.8235 93.9151 59.9019C93.9151 58.3725 94.1425 57.098 94.1425 55.5686L94.3699 54.0392C96.189 41.549 102.784 40.0196 110.06 40.0196C116.655 40.0196 121.658 42.5686 121.658 51.4902C121.658 53.0196 121.658 54.549 121.43 55.8235ZM148.945 49.1961H141.896L138.485 70.8627H126.66L130.071 49.1961H122.567V41.0392H151.447L148.945 49.1961ZM163.499 48.9412C161.679 48.9412 161.225 50.2157 160.542 55.0588L160.315 56.5882C160.088 57.8627 159.86 59.3921 159.86 60.6666C159.86 62.1961 160.315 62.7059 161.452 62.7059C163.271 62.7059 163.726 61.6863 164.408 56.5882L164.636 55.0588C164.863 53.7843 165.09 52.2549 165.09 50.9804C165.09 49.451 164.636 48.9412 163.499 48.9412ZM176.005 55.8235L175.778 57.3529C173.959 69.8431 167.364 71.3725 160.088 71.3725C153.721 71.3725 148.49 68.8235 148.49 59.9019C148.49 58.3725 148.718 57.098 148.718 55.5686L148.945 54.0392C150.764 41.549 157.359 40.0196 164.636 40.0196C171.23 40.0196 176.233 42.5686 176.233 51.4902C176.233 53.0196 176.233 54.549 176.005 55.8235Z" fill="#F4F2F2"/>
</g>
<defs>
<clipPath id="clip0_3_90">
<rect width="332" height="130" fill="white"/>
</clipPath>
</defs>
</svg>
